<?xml version="1.0" encoding="UTF-8" standalone="no"?>
<!-- Created with Inkscape (http://www.inkscape.org/) -->

<svg
   width="210mm"
   height="297mm"
   viewBox="0 0 210 297"
   version="1.1"
   id="svg5"
   inkscape:version="1.1.1 (3bf5ae0d25, 2021-09-20)"
   sodipodi:docname="pilka.svg"
   xmlns:inkscape="http://www.inkscape.org/namespaces/inkscape"
   xmlns:sodipodi="http://sodipodi.sourceforge.net/DTD/sodipodi-0.dtd"
   xmlns="http://www.w3.org/2000/svg"
   xmlns:svg="http://www.w3.org/2000/svg">
  <sodipodi:namedview
     id="namedview7"
     pagecolor="#505050"
     bordercolor="#eeeeee"
     borderopacity="1"
     inkscape:pageshadow="0"
     inkscape:pageopacity="0"
     inkscape:pagecheckerboard="0"
     inkscape:document-units="mm"
     showgrid="false"
     inkscape:zoom="2.0460067"
     inkscape:cx="650.04674"
     inkscape:cy="400.53632"
     inkscape:window-width="1920"
     inkscape:window-height="1001"
     inkscape:window-x="-9"
     inkscape:window-y="-9"
     inkscape:window-maximized="1"
     inkscape:current-layer="layer1" />
  <defs
     id="defs2" />
  <g
     inkscape:label="Warstwa 1"
     inkscape:groupmode="layer"
     id="layer1">
    <path
       style="fill:#000000;stroke-width:0.264583"
       d="m 156.16579,129.56278 c -1.75645,-0.31494 -1.81973,-0.36297 -1.17131,-0.88919 0.28041,-0.22756 0.33125,-0.33423 0.11297,-0.23703 -0.21828,0.0972 0.10736,-0.25955 0.72364,-0.79278 l 1.12051,-0.9695 -1.64968,-1.12479 -1.64968,-1.12479 -1.31806,1.29029 c -0.72493,0.70966 -1.36159,1.1597 -1.41479,1.0001 -0.0689,-0.20676 -0.20246,-0.20244 -0.46451,0.015 -0.20228,0.16788 -0.55407,0.23374 -0.78176,0.14637 -0.26711,-0.10251 -0.34818,-0.0524 -0.22849,0.14128 0.13048,0.21111 -0.0316,0.24564 -0.54659,0.11639 -0.82145,-0.20616 -3.84476,-2.25468 -3.84476,-2.6051 0,-0.12445 -0.35704,-0.35073 -0.79343,-0.50286 -0.43639,-0.15212 -0.72702,-0.38406 -0.64585,-0.5154 0.0812,-0.13135 -0.0235,-0.23881 -0.23262,-0.23881 -0.20912,0 -0.57885,-0.26789 -0.82162,-0.59531 -0.24277,-0.32742 -0.35796,-0.42809 -0.25597,-0.22371 0.117,0.2345 0.0783,0.30541 -0.10488,0.1922 -0.25481,-0.15748 2.13528,-3.36829 5.04809,-6.78151 1.32752,-1.55558 4.69231,-5.02709 4.87256,-5.02709 0.0933,0 -0.0793,0.26789 -0.38357,0.59532 -0.47224,0.50811 -2.10211,2.82306 -2.63716,3.74563 -0.0923,0.15909 0.0818,0.0706 0.38683,-0.19661 0.46292,-0.40557 0.54455,-0.41744 0.49382,-0.0718 -0.0334,0.22772 -0.32205,0.69216 -0.6414,1.03209 -0.31935,0.33994 -0.58063,0.74954 -0.58063,0.91024 0,0.1607 -0.41345,0.68216 -0.91877,1.15879 -0.50533,0.47664 -0.86355,0.92184 -0.79605,0.98934 0.0675,0.0675 -0.01,0.28251 -0.17196,0.4778 -0.36199,0.43618 -1.13226,0.4803 -0.86608,0.0496 0.11791,-0.19077 0.0725,-0.23358 -0.12099,-0.11401 -0.17038,0.1053 -0.24721,0.29269 -0.17074,0.41643 0.0765,0.12373 -0.0491,0.41316 -0.27917,0.64317 -0.26463,0.26464 -0.30278,0.41821 -0.10388,0.41821 0.19159,0 0.26555,0.25517 0.18941,0.65345 -0.0687,0.3594 -0.023,0.5905 0.10145,0.51355 0.1245,-0.0769 0.23083,0.0755 0.2363,0.33874 0.007,0.35615 0.24686,0.2078 0.93579,-0.5797 l 0.92586,-1.05833 -0.47277,0.92584 c -0.26003,0.50921 -0.59184,1.01341 -0.73736,1.12043 -0.1716,0.1262 -0.16385,0.19601 0.0221,0.19864 0.15765,0.002 0.36908,-0.0784 0.46984,-0.17916 0.10076,-0.10077 0.42116,-0.21952 0.712,-0.26391 0.49961,-0.0762 0.50711,-0.0388 0.13603,0.67883 -0.21603,0.41774 -0.32102,0.83128 -0.23333,0.91897 0.0877,0.0877 -0.006,0.36758 -0.20899,0.62196 -0.20264,0.25439 0.19712,0.005 0.88834,-0.55464 0.69122,-0.55944 1.25948,-1.09212 1.26279,-1.18373 0.003,-0.0916 0.65022,-0.86444 1.43759,-1.71739 1.3447,-1.4567 1.49477,-1.5448 2.47269,-1.45154 l 1.04111,0.0993 -0.42818,-0.66483 c -0.36887,-0.57273 -0.22659,-0.5211 1.02702,0.37267 0.80037,0.57063 1.78342,1.33767 2.18456,1.70452 0.58648,0.53636 0.79379,0.60146 1.05833,0.33236 0.18094,-0.18406 0.20992,-0.29638 0.0644,-0.24961 -0.14552,0.0468 -0.26458,-0.034 -0.26458,-0.17954 0,-0.14552 0.11906,-0.2223 0.26458,-0.17062 0.14552,0.0517 0.39812,0.11595 0.56133,0.14282 0.16321,0.0269 1.00735,0.66446 1.87585,1.41686 0.91101,0.78922 1.68099,1.27136 1.81992,1.13958 0.13245,-0.12562 1.00833,-0.42206 1.94639,-0.65875 0.93806,-0.23668 1.75991,-0.48467 1.82633,-0.55109 0.0664,-0.0664 -0.22484,-0.38931 -0.64724,-0.71753 -1.70689,-1.32635 -3.02536,-2.68151 -2.76529,-2.84224 0.15743,-0.0973 -0.15804,-0.59047 -0.74324,-1.16191 -0.77336,-0.75516 -0.9872,-1.14761 -0.89322,-1.63926 0.11531,-0.60321 -0.11599,-0.79307 -0.81768,-0.67117 -0.11996,0.0208 -0.14778,-0.0759 -0.0618,-0.21497 0.0859,-0.13907 0.0353,-0.32765 -0.11263,-0.41905 -0.14789,-0.0914 -0.25703,-0.48658 -0.24252,-0.87818 0.0236,-0.63601 0.0447,-0.65143 0.19844,-0.14452 0.15355,0.50642 1.45704,1.74185 8.11824,7.69441 1.50412,1.34411 1.77036,1.69642 1.44653,1.91418 -0.61945,0.41656 -0.0628,0.32103 0.83517,-0.14331 l 0.8089,-0.4183 -0.6236,-0.42508 c -0.61069,-0.41628 -2.61385,-2.05467 -4.44201,-3.63312 -0.77334,-0.6677 -3.6239,-3.30935 -4.95816,-4.59477 -0.20635,-0.19879 -0.33992,-0.46721 -0.29683,-0.59648 0.0431,-0.12928 1.37841,-1.55062 2.96737,-3.15855 l 2.88901,-2.9235 1.8532,1.80019 c 1.01926,0.99011 2.01098,1.94052 2.20382,2.11203 0.52546,0.46732 0.42372,0.66985 -0.24468,0.48711 -0.56689,-0.15498 -0.57005,-0.14782 -0.0662,0.14988 0.29104,0.17195 0.88635,0.62412 1.32292,1.00482 l 0.79375,0.69219 -0.77711,-0.85989 c -1.42808,-1.58023 -0.39416,-0.88421 2.11646,1.42477 1.36631,1.25657 2.42885,2.37422 2.3612,2.48367 -0.0676,0.10945 0.0456,0.18268 0.2517,0.16273 0.20608,-0.0199 1.15104,0.7178 2.09992,1.63944 1.08678,1.05559 1.90005,1.64206 2.1976,1.58476 0.33606,-0.0647 -0.70969,-1.13233 -3.62412,-3.6999 -2.25307,-1.98491 -5.10852,-4.65925 -6.34544,-5.94298 -2.30397,-2.39114 -2.21334,-2.36386 0.82309,0.24777 1.84477,1.58668 2.17353,1.77235 1.90661,1.07677 -0.13873,-0.36154 -0.0784,-0.38177 0.39044,-0.13087 0.305,0.16323 0.62577,0.41202 0.71282,0.55287 0.087,0.14084 0.54178,0.43807 1.01053,0.6605 0.46874,0.22244 0.9697,0.67211 1.11324,0.99927 0.14354,0.32716 0.43957,0.59549 0.65785,0.59628 0.23913,7.9e-4 0.38501,0.22864 0.36703,0.57308 -0.0215,0.41136 0.0841,0.5279 0.37667,0.41565 0.28457,-0.1092 0.36061,-0.0364 0.2535,0.24272 -0.15626,0.4072 -0.0674,0.44975 1.16366,0.55746 0.3881,0.034 0.7949,0.15103 0.90399,0.26017 0.31603,0.31619 0.68977,0.22954 0.47923,-0.11111 -0.12863,-0.20813 -0.0471,-0.25419 0.24898,-0.14059 0.77961,0.29917 0.47056,-0.27364 -0.68421,-1.26811 -0.82635,-0.71165 -0.91404,-0.84513 -0.33073,-0.50348 0.43657,0.2557 0.94135,0.64315 1.12175,0.86099 0.52734,0.63679 0.67421,0.15883 0.22068,-0.7182 -0.59183,-1.14447 -0.5322,-1.2108 0.50966,-0.56689 0.50932,0.31478 0.92604,0.4885 0.92604,0.38605 0,-0.10244 0.17859,-0.038 0.39687,0.14311 0.27037,0.22439 0.39688,0.23555 0.39688,0.035 0,-0.1619 -1.06543,-1.32887 -2.36762,-2.59326 -1.30219,-1.2644 -2.31703,-2.38076 -2.2552,-2.4808 0.0618,-0.10005 -0.12289,-0.39486 -0.4105,-0.65514 -0.28761,-0.26029 -0.52293,-0.76703 -0.52293,-1.1261 0,-0.58296 -0.0492,-0.61397 -0.45992,-0.28972 -0.42719,0.33729 -0.4319,0.32289 -0.0661,-0.20245 0.72655,-1.04355 1.94563,-2.60323 2.59594,-3.32125 0.6198,-0.68431 0.62294,-0.70613 0.0812,-0.56445 -0.30995,0.0811 -0.56355,0.0698 -0.56355,-0.0251 0,-0.28358 0.83722,-1.52988 1.90214,-2.83153 l 1.00013,-1.222495 -0.54567,-2.08334 c -0.30013,-1.14584 -0.58441,-2.12207 -0.63173,-2.16939 -0.0473,-0.0473 -0.67353,0.51709 -1.39157,1.25426 -0.71804,0.73717 -1.2591,1.38673 -1.20236,1.44348 0.19618,0.19617 -1.31069,1.21407 -1.56479,1.05703 -0.14024,-0.0867 -0.62087,0.18284 -1.06805,0.59892 -0.54936,0.511145 -0.75951,0.606045 -0.64793,0.29261 0.15175,-0.42627 0.11578,-0.43156 -0.44332,-0.0652 -0.33466,0.219275 -0.68199,0.325165 -0.77185,0.235305 -0.0899,-0.0899 -0.48337,0.0883 -0.87446,0.39595 -0.82656,0.65017 -1.25128,0.70077 -1.66796,0.1987 -0.24229,-0.29195 -0.17252,-0.3364 0.36636,-0.23338 0.57123,0.1092 1.10981,-0.33698 3.79647,-3.145105 1.72194,-1.7998 3.65586,-3.86789 4.29759,-4.59577 0.64174,-0.72788 1.28585,-1.36432 1.43137,-1.4143 0.54528,-0.1873 2.54894,7.27615 2.33309,8.69051 -0.11296,0.740155 -2.49646,4.077995 -4.32377,6.054995 -1.41394,1.52975 -1.59305,2.14556 -0.83622,2.87503 0.26422,0.25466 1.36555,1.30096 2.4474,2.32511 1.08185,1.02415 2.29443,2.25368 2.69461,2.73228 0.68373,0.81772 0.7276,0.83347 0.7276,0.26121 0,-0.43098 -0.90197,-1.47731 -3.08562,-3.5795 -2.63722,-2.53883 -3.03659,-3.02961 -2.74815,-3.37716 0.18561,-0.22365 0.43586,-0.34583 0.55611,-0.27152 0.3021,0.18672 2.23209,-1.94554 2.24731,-2.48283 0.007,-0.23993 0.16448,-0.40352 0.3504,-0.36353 0.18592,0.04 0.25831,-0.0563 0.16086,-0.21398 -0.23515,-0.38048 1.18445,-2.41075 1.53441,-2.19446 0.15726,0.0972 0.19278,0.0392 0.0839,-0.13693 -0.3249,-0.52568 0.10428,-0.8993 0.5936,-0.51675 0.39316,0.30738 0.40121,0.2948 0.0763,-0.11944 -0.26816,-0.34193 -0.27878,-0.46302 -0.0406,-0.46302 0.44789,0 2.8021,2.12059 2.70954,2.44067 -0.0415,0.14347 0.0671,0.43256 0.24123,0.64241 0.25541,0.30775 0.35877,0.31516 0.5344,0.0383 0.11976,-0.18879 0.21957,-0.41489 0.22179,-0.50245 0.006,-0.24506 -1.39856,-1.65723 -2.43489,-2.44768 -0.84588,-0.64518 -0.95863,-0.892795 -1.25464,-2.755185 -0.33598,-2.11388 -1.98247,-7.614 -2.45406,-8.19784 -0.39131,-0.48445 -0.73827,-0.40335 -0.56597,0.13229 0.10658,0.33131 0.0795,0.36654 -0.0953,0.12385 -0.17896,-0.24853 -1.06366,0.56461 -3.31051,3.04271 -1.68645,1.86003 -3.66468,3.96613 -4.39607,4.68021 l -1.3298,1.29833 -2.40331,-2.45654 -2.40332,-2.45654 1.30039,-1.35533 c 3.16842,-3.30228 4.66454,-5.03472 4.63087,-5.36233 -0.02,-0.19412 0.0637,-0.29118 0.18579,-0.21569 0.12214,0.0755 0.73378,-0.43162 1.35919,-1.1269 1.79335,-1.99369 4.2417,-4.33403 4.38458,-4.19116 0.0716,0.0717 -0.24277,0.55512 -0.6987,1.0744 -0.87434,0.99581 -1.10058,1.48051 -0.43209,0.92571 0.6034,-0.50077 0.50043,0.11342 -0.19844,1.18367 -0.32742,0.50142 -0.85751,1.0526 -1.17797,1.22486 -0.32047,0.17225 -0.5586,0.44494 -0.52917,0.60598 0.0294,0.16103 -0.0656,0.28108 -0.21109,0.26677 -0.14552,-0.0143 -0.80036,0.49561 -1.4552,1.13316 -0.65485,0.63755 -1.01204,1.12551 -0.79375,1.08435 0.55948,-0.10549 0.35875,0.82365 -0.35366,1.63696 -0.36511,0.41682 -0.4024,0.52293 -0.10297,0.29302 0.68349,-0.5248 0.80528,-0.21046 0.17894,0.46184 -0.29517,0.31683 -0.43143,0.57606 -0.30279,0.57606 0.12863,0 0.45936,-0.24915 0.73494,-0.55367 0.27559,-0.30452 0.74053,-0.67665 1.0332,-0.82694 0.32667,-0.16776 0.18008,0.0971 -0.37967,0.68596 -1.01498,1.06778 -0.94828,1.19767 0.24299,0.47321 0.43956,-0.26731 0.71033,-0.58405 0.60171,-0.70387 -0.10862,-0.11983 -0.0434,-0.12899 0.14483,-0.0204 0.18828,0.10861 0.49019,0.0748 0.67091,-0.0752 0.24182,-0.20069 0.32859,-0.14197 0.32859,0.22238 0,0.2723 -0.0788,0.44638 -0.17512,0.38686 -0.21627,-0.13367 -1.65045,1.90114 -1.7321,2.45749 -0.0327,0.22259 -0.4546,0.83118 -0.93762,1.35243 -0.48303,0.52126 -0.003,0.1397 1.06564,-0.84789 1.06912,-0.9876 2.54192,-2.43821 3.27288,-3.22358 0.73097,-0.78537 1.5546,-1.49954 1.83029,-1.58704 0.2757,-0.0875 0.43116,-0.27254 0.34547,-0.41119 -0.0857,-0.13865 -0.013,-0.21937 0.16153,-0.17939 0.17452,0.04 0.37741,-0.0927 0.45086,-0.29485 0.0896,-0.24654 0.0217,-0.29842 -0.20624,-0.15756 -0.22306,0.13786 -0.27478,0.10481 -0.15056,-0.0962 0.14,-0.22653 0.33146,-0.23006 0.73598,-0.0136 0.40618,0.21738 0.59616,0.21269 0.73887,-0.0182 0.1139,-0.18429 0.54857,0.50028 1.06768,1.68152 0.48157,1.09579 0.96267,1.93853 1.06912,1.87274 0.28646,-0.17704 0.92574,1.61376 1.302,3.64726 0.18176,0.98227 0.45643,1.78594 0.6104,1.78594 0.15397,0 0.49767,0.19705 0.76379,0.43788 0.45464,0.41145 0.48386,0.40318 0.48386,-0.13691 0,-0.31613 -0.24699,-1.71478 -0.54887,-3.10811 -0.30188,-1.39333 -0.49241,-2.58978 -0.42342,-2.65877 0.10181,-0.10181 -0.48346,-1.74867 -1.32499,-3.72836 -0.0773,-0.1819 -0.0317,-0.33073 0.10138,-0.33073 0.52802,0 2.19892,4.83209 2.8612,8.2743 0.53643,2.78816 0.78849,7.205975 0.47786,8.375465 l -0.24092,0.90707 -0.6027,-0.64248 -0.6027,-0.64248 0.18026,0.72761 c 0.25305,1.02142 -0.24693,0.93423 -1.35008,-0.23545 -0.49955,-0.52968 -0.90827,-0.79598 -0.90827,-0.59178 0,0.2042 -0.42883,1.00804 -0.95295,1.78632 l -0.95295,1.41504 1.29083,1.23119 1.29083,1.23119 0.0368,1.84815 c 0.0351,1.76055 -0.0208,1.94221 -1.1802,3.83253 -1.25013,2.03834 -3.41197,5.02403 -3.86168,5.33333 -0.24861,0.17098 -0.50446,0.13199 -1.4254,-0.21725 -0.25466,-0.0966 -0.52255,-0.19009 -0.59531,-0.20782 -0.0728,-0.0177 -0.40189,-0.18193 -0.73138,-0.36491 -0.32951,-0.18297 -0.5833,-0.23829 -0.56398,-0.12291 0.0193,0.11537 0.021,0.30056 0.004,0.41152 -0.0476,0.30628 -2.20245,-1.12565 -2.75929,-1.83356 -0.26918,-0.34221 -0.6019,-0.55268 -0.73937,-0.46772 -0.13747,0.085 -0.2176,0.0563 -0.17807,-0.0636 0.0395,-0.11996 -0.404,-0.69683 -0.98563,-1.28194 -0.75012,-0.7546 -1.23479,-1.0371 -1.66739,-0.97187 -0.33543,0.0506 -0.7564,-0.0297 -0.93549,-0.17829 -0.73977,-0.61395 -0.29033,0.90013 0.47758,1.6089 0.58758,0.54232 0.66115,0.69151 0.27404,0.55573 -0.29105,-0.10209 -0.6876,-0.34219 -0.88123,-0.53358 -0.19363,-0.19138 -0.46954,-0.27536 -0.61312,-0.18662 -0.14359,0.0887 -0.32431,-0.0805 -0.40162,-0.37614 -0.0773,-0.29561 -0.31169,-0.60315 -0.52087,-0.68342 -0.21055,-0.0808 -0.0217,0.37519 0.42295,1.02156 0.44179,0.64212 0.80326,1.23808 0.80326,1.32436 0,0.19478 -1.19891,-0.5506 -2.223,-1.38208 -0.54363,-0.44139 -0.82396,-0.53252 -0.96016,-0.31214 -0.1058,0.17119 -0.23769,0.20849 -0.29308,0.0829 -0.0554,-0.1256 -0.51629,-0.57913 -1.02421,-1.00784 -1.34572,-1.13582 3.50977,3.67188 5.69108,5.63507 1.01864,0.91679 1.73302,1.61058 1.5875,1.54176 -0.14553,-0.0688 -0.47763,0.15909 -0.738,0.50647 l -0.47342,0.6316 0.70855,-0.26939 c 0.3897,-0.14816 0.75084,-0.2271 0.80253,-0.17541 0.10972,0.10972 -2.4683,1.31971 -4.00383,1.87918 -0.65453,0.23848 -0.85643,0.39579 -0.52917,0.4123 0.48389,0.0244 0.48996,0.0495 0.0709,0.29371 -0.66292,0.38628 -4.90162,1.27653 -5.1257,1.07656 -0.10418,-0.093 -0.11461,-0.0378 -0.0232,0.1227 0.0914,0.16046 -0.005,0.51765 -0.21375,0.79375 -0.20899,0.2761 -0.38377,0.56978 -0.3884,0.65261 -0.0152,0.27264 3.58521,-0.27207 6.22561,-0.94186 1.42553,-0.36162 2.63767,-0.61171 2.69363,-0.55575 0.18623,0.18623 -4.00834,1.47478 -6.10943,1.87679 -2.31074,0.44212 -7.42276,0.48032 -9.69739,0.0725 z m 0.13929,-0.94802 c -0.0815,-0.0815 -0.29496,-1.7e-4 -0.47443,0.18065 -0.25937,0.26131 -0.22897,0.2917 0.14811,0.14811 0.26094,-0.0994 0.40778,-0.2473 0.32632,-0.32876 z m 4.15138,-2.12825 c 0.56051,-0.90693 0.56141,-0.92703 0.0576,-1.28481 -0.2815,-0.19991 -1.07022,-0.7754 -1.75271,-1.27888 -1.28736,-0.94968 -1.70329,-1.13356 -1.37967,-0.60995 0.1179,0.19078 0.0725,0.23358 -0.121,0.11401 -0.17038,-0.1053 -0.24798,-0.29144 -0.17246,-0.41364 0.18552,-0.30017 -1.43124,-1.63715 -1.74514,-1.44315 -0.13681,0.0845 -0.21602,-0.004 -0.17604,-0.19666 0.04,-0.19272 -0.085,-0.31768 -0.27769,-0.2777 -0.19272,0.04 -0.27868,-0.0433 -0.19103,-0.18516 0.18956,-0.30672 -0.67097,-0.81358 -1.38128,-0.81358 -0.27625,0 -0.90849,0.50602 -1.40499,1.12448 -0.49649,0.61846 -1.73681,2.00499 -2.75626,3.08116 -1.41556,1.49433 -1.66426,1.8594 -1.05249,1.54499 0.72244,-0.3713 4.44663,-4.20767 4.96678,-5.1164 0.11637,-0.2033 0.34701,-0.36965 0.51252,-0.36965 0.16552,0 -0.0207,0.33568 -0.41373,0.74595 -0.39306,0.41027 -0.6237,0.83692 -0.51252,0.94809 0.11118,0.11118 0.0652,0.16246 -0.10213,0.11395 -0.16735,-0.0485 -0.31239,0.006 -0.32231,0.12024 -0.01,0.11465 -0.37902,0.51218 -0.82021,0.88342 -0.44119,0.37124 -0.80216,0.86283 -0.80216,1.09243 0,0.2296 -0.0784,0.33911 -0.1741,0.24336 -0.25716,-0.25716 -0.90662,0.3648 -0.71116,0.68105 0.092,0.14884 1.03178,-0.66832 2.08843,-1.81591 l 1.92118,-2.08654 0.88522,0.81375 c 0.48687,0.44757 1.39405,1.20395 2.01596,1.68085 0.98544,0.75566 1.18944,0.82109 1.5875,0.50916 0.40407,-0.31663 0.41837,-0.30873 0.12395,0.0686 -0.28489,0.36508 -0.18003,0.52758 0.72827,1.12867 l 1.06108,0.70219 -0.70051,1.12028 c -0.61836,0.98889 -0.63295,1.06026 -0.12442,0.60853 0.31685,-0.28147 0.83233,-0.92637 1.14552,-1.4331 z m -11.08923,-0.84839 c 0.1163,-0.44473 0.0741,-0.48764 -0.23081,-0.2346 -0.20523,0.17032 -0.3079,0.41525 -0.22815,0.54428 0.21587,0.34929 0.3018,0.2913 0.45896,-0.30968 z m 29.28814,-6.69936 c 0,-0.0549 -0.20836,-0.2633 -0.46302,-0.46302 -0.41965,-0.32911 -0.42901,-0.31975 -0.0999,0.0999 0.34565,0.44073 0.56292,0.58088 0.56292,0.36312 z m -8.85266,-3.0575 c -0.0959,-0.1552 -0.29113,-0.28219 -0.4338,-0.28219 -0.14267,0 -0.10588,0.16659 0.0818,0.37019 0.37985,0.41218 0.62352,0.35126 0.35204,-0.088 z m 16.26099,-2.55963 c 0,-0.21897 -0.51375,-0.3428 -0.63153,-0.15222 -0.0764,0.12364 0.0344,0.2248 0.2463,0.2248 0.21187,0 0.38523,-0.0327 0.38523,-0.0726 z m -18.52083,-4.73401 c -0.18116,-0.21829 -0.45662,-0.39688 -0.61213,-0.39688 -0.15552,0 -0.0516,0.17481 0.23083,0.38846 0.6637,0.502 0.79331,0.50486 0.3813,0.008 z m 8.06979,-9.128135 c 0.26339,-0.29104 0.41936,-0.52917 0.3466,-0.52917 -0.0728,0 -0.34779,0.23813 -0.61118,0.52917 -0.26339,0.29104 -0.41936,0.52917 -0.3466,0.52917 0.0728,0 0.34779,-0.23813 0.61118,-0.52917 z m -22.225,29.368755 c -0.34892,-0.14993 -0.39398,-0.23234 -0.13229,-0.24194 0.21828,-0.008 0.57547,0.10087 0.79375,0.24194 0.48365,0.31256 0.0659,0.31256 -0.66146,0 z m -2.11667,-0.79375 c -0.0899,-0.14552 -0.0374,-0.26458 0.11668,-0.26458 0.15411,0 0.2802,0.11906 0.2802,0.26458 0,0.14552 -0.0525,0.26458 -0.11668,0.26458 -0.0642,0 -0.19026,-0.11906 -0.2802,-0.26458 z m -10.18646,-6.35 c 0,-0.54431 0.0596,-0.65959 0.30522,-0.59059 0.13876,0.039 0.42543,-0.10226 0.63703,-0.31386 0.47188,-0.47188 -8.5e-4,-0.87038 -0.52071,-0.43893 -0.27717,0.23003 -0.32276,0.1522 -0.22141,-0.37801 0.0702,-0.36722 0.23249,-0.73248 0.36063,-0.81168 0.12815,-0.0792 0.23299,-0.26305 0.23299,-0.40858 0,-0.14552 -0.11906,-0.191 -0.26458,-0.10106 -0.78562,0.48554 0.52294,-2.14174 1.35807,-2.72669 0.27658,-0.19372 0.44698,-0.44264 0.37868,-0.55315 -0.0683,-0.11052 0.41167,-0.64884 1.06659,-1.19629 0.97735,-0.81697 1.13362,-1.0642 0.87192,-1.37953 -0.25557,-0.30794 -0.19555,-0.5526 0.30249,-1.233 0.35962,-0.49132 0.43285,-0.69589 0.17387,-0.48571 -0.38369,0.31138 -0.44745,0.30509 -0.44745,-0.0441 0,-0.22397 0.14882,-0.46728 0.33073,-0.54068 0.24872,-0.10036 0.24258,-0.13863 -0.0248,-0.15433 -0.19553,-0.0115 -0.41742,0.21589 -0.49311,0.5053 -0.0777,0.29695 -0.26858,0.45137 -0.43825,0.35445 -0.16535,-0.0944 -0.22951,-0.0914 -0.14257,0.007 0.16382,0.18494 -1.38909,2.07087 -1.56245,1.89751 -0.0538,-0.0538 0.21037,-0.55149 0.5871,-1.10591 0.37674,-0.55442 0.67558,-1.18876 0.6641,-1.40964 -0.0141,-0.27178 -0.064,-0.29469 -0.15435,-0.0709 -0.0734,0.1819 -0.2962,0.33073 -0.49513,0.33073 -0.19892,0 -0.47562,0.2036 -0.61488,0.45244 -0.20855,0.37266 -0.24586,0.32992 -0.21158,-0.24233 0.0229,-0.38213 0.0906,-0.64589 0.15045,-0.58614 0.17089,0.17056 1.36905,-1.70065 1.48953,-2.32624 0.0596,-0.30931 0.43843,-0.92916 0.84192,-1.37745 0.64294,-0.71435 0.60716,-0.70063 -0.2896,0.11097 -1.02742,0.92985 -2.90175,3.08988 -4.13506,4.76535 -0.74982,1.01864 -2.23342,2.65537 -2.024,2.2329 0.0757,-0.15277 -0.0998,-0.42611 -0.39015,-0.60741 -0.48362,-0.30203 -0.50357,-0.2843 -0.23816,0.21163 0.15932,0.29769 0.22796,0.54126 0.15253,0.54126 -0.17342,0 -1.42595,-2.46105 -1.88131,-3.69653 -0.23629,-0.64109 -0.3546,-0.76785 -0.37755,-0.40451 -0.0582,0.92069 -1.01336,-1.74441 -1.21154,-3.38031 -0.1564,-1.29095 -0.30853,-1.61608 -0.97987,-2.09412 l -0.79474,-0.5659 0.18132,1.43267 c 0.0997,0.78796 0.4627,2.56376 0.80662,3.9462 0.34392,1.38245 0.69782,2.8112 0.78644,3.175 0.0886,0.36381 -0.15171,-0.11244 -0.53407,-1.05833 -1.10751,-2.73977 -1.69067,-6.07115 -1.69051,-9.65729 1.3e-4,-3.237045 0.15283,-4.461545 0.52748,-4.229995 0.1154,0.0713 0.14751,-0.10861 0.0713,-0.39985 -0.0874,-0.33434 -0.008,-0.52954 0.21469,-0.52954 0.38198,0 1.56063,1.24815 1.56063,1.65265 0,0.13609 0.51266,-0.50751 1.13925,-1.43021 l 1.13924,-1.67765 -1.23652,-1.3362 -1.23653,-1.33621 0.26119,-1.44192 c 0.26313,-1.45261 1.06674,-3.33331 1.63361,-3.82317 0.1684,-0.14552 0.59259,-0.74083 0.94265,-1.32291 0.35006,-0.58209 0.70842,-1.11787 0.79635,-1.19063 0.0879,-0.0728 0.56089,-0.69784 1.05101,-1.38906 0.49012,-0.69122 0.94711,-1.25677 1.01554,-1.25677 0.0684,0 0.2952,0.20836 0.50394,0.46302 0.21713,0.26491 0.29192,0.29321 0.1748,0.0661 -0.1126,-0.21828 0.23576,-0.0634 0.77412,0.34419 0.7422,0.5619 0.97885,0.64186 0.97885,0.33073 0,-0.52052 0.36776,-0.52676 0.79375,-0.0135 0.18116,0.21828 0.48529,0.39687 0.67584,0.39687 0.19056,0 0.6018,0.35859 0.91388,0.79686 0.31208,0.43827 0.67737,0.7289 0.81177,0.64584 0.13439,-0.0831 0.24435,-0.008 0.24435,0.16669 0,0.62019 1.51198,1.8004 2.10713,1.64477 0.36777,-0.0962 0.77809,0.0535 1.17889,0.43003 l 0.61478,0.57755 -0.14088,-0.74181 c -0.0775,-0.40799 -0.57675,-1.15852 -1.10951,-1.66785 -0.53275,-0.50932 -0.77212,-0.77721 -0.53192,-0.59531 0.24019,0.1819 0.57617,0.33073 0.74661,0.33073 0.17044,0 0.3099,0.11679 0.3099,0.25954 0,0.14275 0.29683,0.33405 0.65963,0.4251 0.3628,0.0911 0.60863,0.24809 0.54628,0.34896 -0.0623,0.10087 0.12284,0.33091 0.41152,0.51119 0.50928,0.31805 0.5118,0.30784 0.0847,-0.34392 -0.24206,-0.36944 -0.55251,-0.6717 -0.68988,-0.6717 -0.13737,0 -0.17296,-0.12428 -0.0791,-0.27618 0.0939,-0.15189 0.0116,-0.46904 -0.18283,-0.70477 -0.32033,-0.38838 -0.29143,-0.39602 0.30796,-0.0814 0.3638,0.19097 1.00555,0.63352 1.4261,0.98346 0.42056,0.34993 0.91539,0.57839 1.09962,0.5077 0.18424,-0.0707 0.55319,0.11258 0.81989,0.40729 0.26671,0.2947 0.72438,0.65377 1.01705,0.79792 0.71781,0.35355 -2.13532,-2.39557 -4.82793,-4.65193 -1.19932,-1.00501 -2.18057,-1.88279 -2.18057,-1.95063 0,-0.0678 0.20836,0.038 0.46302,0.23523 0.39946,0.30934 0.39591,0.27976 -0.0259,-0.21552 -0.26892,-0.31574 -0.41701,-0.69047 -0.32908,-0.83274 0.0879,-0.14226 0.0318,-0.30134 -0.12473,-0.35352 -0.15652,-0.0522 0.46781,-0.45823 1.38741,-0.90236 0.9196,-0.44412 1.96966,-0.95107 2.33346,-1.12654 0.40243,-0.19411 0.45424,-0.26378 0.13229,-0.17792 -0.52313,0.13951 -0.52327,0.13656 -0.0122,-0.25886 0.6206,-0.48018 1.95635,-0.88632 3.60964,-1.09754 0.96711,-0.12355 1.36227,-0.33845 1.92951,-1.04936 0.66294,-0.83084 0.67608,-0.894 0.18591,-0.894 -0.70823,0 -2.88062,0.43825 -5.40661,1.09072 -1.14126,0.29478 -2.13108,0.47992 -2.19959,0.4114 -0.18714,-0.18714 3.78649,-1.43569 5.57997,-1.75328 0.86348,-0.1529 2.53035,-0.29209 3.70417,-0.30931 1.54615,-0.0227 1.91551,-0.087 1.34047,-0.23328 l -0.79375,-0.20198 0.8599,-0.0313 c 0.47294,-0.0172 0.85989,0.0748 0.85989,0.2046 0,0.12974 0.30253,0.31183 0.67228,0.40463 0.37335,0.0937 0.59633,0.29162 0.50148,0.44509 -0.0939,0.152 0.0793,0.12014 0.38507,-0.0708 0.50774,-0.31709 0.51587,-0.36298 0.0938,-0.5301 -0.34741,-0.13757 -0.28152,-0.18757 0.26557,-0.20155 0.76699,-0.0196 0.96056,0.43636 0.4163,0.98062 -0.23869,0.23869 -0.17697,0.28544 0.26458,0.2004 0.80118,-0.15429 0.72623,0.0754 -0.4163,1.27549 -0.5457,0.57322 -0.86035,0.96867 -0.69921,0.87878 0.16113,-0.0899 0.95562,0.23558 1.76552,0.72328 l 1.47255,0.88672 1.08574,-1.04327 c 1.21285,-1.16542 1.61005,-1.31386 3.7648,-1.40696 l 1.50241,-0.0649 -1.26661,1.0012 c -0.69664,0.55066 -1.96804,1.78557 -2.82533,2.74423 -0.8573,0.95866 -1.64622,1.74309 -1.75316,1.74317 -0.10694,8e-5 -1.05492,-0.66469 -2.10661,-1.47727 -2.14543,-1.65764 -3.38749,-2.37958 -3.38749,-1.96896 0,0.14926 -0.12609,0.27138 -0.2802,0.27138 -0.15411,0 -0.19545,-0.13712 -0.0919,-0.30472 0.10358,-0.1676 0.002,-0.44134 -0.22685,-0.60831 -0.36181,-0.26456 -0.28196,-0.45226 0.62104,-1.45997 0.56991,-0.63601 1.03299,-1.22547 1.02905,-1.30992 -0.009,-0.19766 -1.59029,1.50384 -2.17065,2.33599 -0.37317,0.53507 -0.51019,0.58298 -0.85317,0.29833 -0.22473,-0.18651 -0.4086,-0.22739 -0.4086,-0.0908 0,0.13654 0.50601,0.53137 1.12448,0.8774 1.55364,0.86925 3.5918,2.33191 4.69635,3.37027 1.31087,1.23232 2.82455,1.52053 3.12996,0.59595 0.11606,-0.35135 0.073,-0.35187 -0.37495,-0.005 -0.49823,0.38625 -0.49824,0.38316 -5.3e-4,-0.20006 0.27802,-0.32581 0.56601,-0.53186 0.63998,-0.45789 0.21211,0.21211 1.10775,-0.70403 0.94528,-0.96691 -0.0801,-0.12968 -0.045,-0.20306 0.0782,-0.16308 0.12317,0.04 0.91361,-0.52261 1.75655,-1.25021 2.47379,-2.13531 2.54269,-2.16067 3.95426,-1.4557 0.66558,0.33241 1.87298,1.12461 2.68311,1.76046 l 1.47297,1.15608 -5.2054,5.28885 c -2.86299,2.90887 -5.30728,5.28885 -5.43176,5.28885 -0.12449,0 0.10519,-0.32758 0.51039,-0.72797 0.94659,-0.93533 2.71645,-3.21747 2.14427,-2.76491 -0.71566,0.56604 -0.78222,-0.0851 -0.0765,-0.74811 0.35931,-0.33757 0.6533,-0.7603 0.6533,-0.93942 0,-0.17912 0.96636,-1.14063 2.14747,-2.13669 1.489,-1.25571 2.01151,-1.83819 1.70406,-1.8996 -0.40595,-0.0811 -0.40848,-0.14189 -0.0299,-0.71964 0.3595,-0.54867 0.36156,-0.61113 0.0157,-0.47843 -0.2484,0.0953 -0.39777,-0.001 -0.39777,-0.25693 0,-0.22526 -0.0984,-0.47038 -0.21867,-0.54471 -0.28709,-0.17744 -1.39337,0.11468 -1.25895,0.33243 0.0572,0.0926 -0.1814,0.18547 -0.53014,0.20639 l -0.63407,0.038 0.5439,-0.76383 c 0.29914,-0.42011 0.47433,-0.87639 0.38931,-1.01396 -0.085,-0.13757 0.0563,-0.37289 0.314,-0.52293 0.25772,-0.15004 0.34902,-0.27642 0.20288,-0.28084 -0.32965,-0.01 -3.57076,2.62294 -3.57076,2.90071 0,0.11113 -0.35295,0.34824 -0.78435,0.52693 -0.43139,0.17869 -0.75881,0.45561 -0.7276,0.61539 0.0312,0.15977 -0.12185,0.29878 -0.34013,0.3089 -0.21828,0.0101 -0.38431,0.20008 -0.36895,0.42211 0.0214,0.30915 -0.23904,0.39469 -1.11192,0.36521 -1.07638,-0.0363 -1.1239,-0.008 -0.85353,0.51596 0.24868,0.48156 0.18616,0.46513 -0.47558,-0.12496 -0.41904,-0.37368 -1.05955,-0.87887 -1.42335,-1.12265 -0.36381,-0.24379 -0.93182,-0.63882 -1.26225,-0.87785 -0.55476,-0.40132 -0.58806,-0.40146 -0.43471,-0.002 0.0913,0.23803 0.10834,0.43278 0.0378,0.43278 -0.52313,0 -2.12222,-0.9273 -3.13228,-1.8164 -0.69271,-0.60974 -1.31616,-0.9709 -1.4523,-0.84129 -0.13119,0.1249 -1.10867,0.48343 -2.17217,0.79673 l -1.93364,0.56963 1.7388,1.38569 c 1.49791,1.19372 3.20189,3.00083 2.30954,2.44933 -0.20113,-0.12431 -0.25286,-0.0481 -0.14973,0.2207 0.0867,0.22584 0.25971,0.41061 0.38454,0.41061 0.12483,0 0.36209,0.2525 0.52725,0.5611 0.16708,0.31219 0.18351,0.48892 0.037,0.39839 -0.14479,-0.0895 -0.33007,0.0114 -0.41172,0.22418 -0.0816,0.21279 -0.0162,0.46863 0.14545,0.56853 0.19035,0.11765 0.21849,0.0596 0.0799,-0.1647 -0.14579,-0.23591 -0.11104,-0.28268 0.10902,-0.14667 0.17768,0.10981 0.25893,0.26379 0.18055,0.34218 -0.0784,0.0784 0.1474,0.48706 0.50173,0.90817 0.5169,0.6143 0.59601,0.89256 0.40016,1.40767 -0.19872,0.52268 -0.13311,0.73009 0.353,1.11586 0.32841,0.26061 0.69868,0.65243 0.82283,0.87071 0.12415,0.21828 -0.18782,0.007 -0.69326,-0.46958 -0.70833,-0.66783 -0.89505,-1.03174 -0.81454,-1.5875 0.0916,-0.63226 -0.2481,-1.0354 -2.75877,-3.27398 -1.57477,-1.40411 -3.51806,-3.05488 -4.31842,-3.66836 -0.80037,-0.61348 -1.64418,-1.32914 -1.87514,-1.59035 -0.23097,-0.26121 -0.55328,-0.39252 -0.71626,-0.29179 -0.178,0.11001 0.57078,0.88632 1.87514,1.94409 1.1943,0.96853 2.58818,2.14372 3.09751,2.61155 0.50932,0.46783 1.73174,1.5869 2.71648,2.48684 l 1.79044,1.63624 -2.15486,2.09361 c -1.18517,1.15148 -2.51602,2.48056 -2.95743,2.9535 -0.44142,0.47294 -0.87274,0.85804 -0.9585,0.85576 -0.0858,-0.002 -0.6499,-0.44875 -1.25364,-0.99218 -0.60374,-0.54343 -2.68733,-2.41653 -4.6302,-4.16244 -1.94288,-1.7459 -4.24171,-3.85926 -5.10852,-4.69635 -1.51039,-1.45859 -1.99586,-1.77608 -1.99586,-1.30527 0,0.22533 2.67628,2.82243 7.50196,7.28002 1.54924,1.43107 2.81679,2.71388 2.81679,2.85069 0,0.13681 -0.40719,-0.12179 -0.90487,-0.57467 -0.49769,-0.45288 -0.95344,-0.78319 -1.01279,-0.73402 -0.0594,0.0492 -0.53717,-0.23802 -1.06184,-0.63821 -0.98386,-0.75042 -1.40717,-0.92519 -1.12154,-0.46302 0.60105,0.97251 -2.09373,-0.79876 -3.12344,-2.05304 -0.26994,-0.32881 -0.57849,-0.54364 -0.68566,-0.47741 -0.10716,0.0662 -0.40822,-0.24079 -0.66901,-0.68228 -0.31659,-0.53593 -0.62799,-0.76247 -0.93701,-0.68166 -0.25456,0.0666 -0.65835,0.0116 -0.8973,-0.1221 -0.3236,-0.1811 -0.43445,-0.13453 -0.43445,0.1825 0,0.26169 -0.12739,0.35517 -0.33073,0.2427 -0.1819,-0.10062 0.0636,0.19001 0.5455,0.64584 0.48192,0.45583 0.81494,0.82879 0.74005,0.82879 -0.38833,0 -1.48399,-0.64996 -1.48399,-0.88032 0,-0.14642 -0.0665,-0.19971 -0.14779,-0.11842 -0.0813,0.0813 0.034,0.58276 0.25608,1.11439 l 0.40387,0.9666 -0.75994,-0.54112 c -0.86804,-0.6181 -1.18116,-0.68831 -0.9383,-0.2104 0.0924,0.1819 -0.0791,0.0496 -0.38126,-0.2939 -0.30213,-0.34354 -0.54933,-0.51886 -0.54933,-0.3896 0,0.47808 0.95548,1.59732 3.09513,3.62565 1.2081,1.14524 2.19472,2.27633 2.19249,2.51354 -0.003,0.33923 -0.0521,0.3555 -0.22909,0.0762 -0.16511,-0.26051 -0.2589,-0.17791 -0.35221,0.31022 -0.12575,0.65781 -0.11948,0.66031 0.55896,0.22276 l 0.68615,-0.44251 -0.60348,0.79375 c -0.33191,0.43656 -0.79945,1.09141 -1.03899,1.45521 -0.23953,0.3638 -0.80102,1.06629 -1.24775,1.56109 -0.77252,0.85562 -0.5261,0.91004 0.42612,0.0941 0.39901,-0.34189 0.42966,-0.32377 0.29879,0.17666 -0.0802,0.30671 -0.25051,0.62235 -0.37847,0.70143 -0.12795,0.0791 -0.23265,0.36897 -0.23265,0.644195 0,0.27522 -0.16992,0.59562 -0.3776,0.71199 -0.20769,0.11637 -0.71799,0.6811 -1.13402,1.25496 l -0.7564,1.04337 0.54147,2.0462 c 0.2978,1.12541 0.60242,2.10715 0.67692,2.18165 0.0745,0.0745 0.4259,-0.30378 0.78088,-0.84061 1.32267,-2.00024 2.1985,-2.98726 2.53585,-2.85781 0.19059,0.0731 0.78675,-0.30699 1.3248,-0.84472 0.53806,-0.53774 0.88839,-0.81743 0.77853,-0.62154 -0.14252,0.25409 -0.0581,0.32541 0.29459,0.24886 0.2719,-0.059 0.46602,-0.24476 0.43139,-0.41278 -0.0346,-0.16802 0.0988,-0.24341 0.29658,-0.16752 0.19776,0.0759 0.43072,-0.0475 0.51769,-0.27411 0.16859,-0.43933 1.76224,-0.59512 1.76224,-0.17226 0,0.13189 -0.23688,0.17787 -0.5264,0.10215 -0.38338,-0.10025 -0.80506,0.17604 -1.55208,1.01696 -4.64802,5.23232 -7.05962,8.47204 -6.80343,9.13965 0.14571,0.37972 0.23066,0.352 0.61368,-0.20028 0.24451,-0.35255 0.53977,-0.76007 0.65614,-0.90559 0.11638,-0.14552 0.6339,-0.83261 1.15005,-1.52687 0.53304,-0.71697 1.06337,-1.1851 1.22759,-1.0836 0.1751,0.10822 0.21336,0.0561 0.097,-0.13219 -0.2116,-0.34238 0.31775,-1.0282 3.07153,-3.9794 l 1.82848,-1.95956 2.89685,2.97127 c 1.59327,1.63419 2.89685,3.036 2.89685,3.11513 0,0.11784 -3.48694,4.12856 -3.98153,4.5796 -0.30212,0.27552 -4.43754,5.23837 -5.87191,7.04681 -0.82338,1.03808 -1.42365,1.96082 -1.33396,2.05052 0.0897,0.0897 -0.0949,0.16308 -0.41017,0.16308 -0.3153,0 -0.57327,-0.11906 -0.57327,-0.26458 z m 5.06727,-5.82083 c 1.40593,-1.67349 3.1722,-3.69756 3.92504,-4.49792 0.75285,-0.80036 1.70983,-1.88067 2.12662,-2.40069 l 0.7578,-0.94548 -2.70173,-2.69254 c -1.48596,-1.4809 -2.78931,-2.69254 -2.89635,-2.69254 -0.2228,0 -1.99547,1.91532 -2.54482,2.74961 -0.20197,0.30672 0.25061,-0.0451 1.00573,-0.78193 l 1.37295,-1.33961 2.40287,2.45025 2.40288,2.45025 -0.72569,0.87373 c -0.39912,0.48056 -1.27815,1.47071 -1.9534,2.20033 -3.95331,4.2717 -7.27361,8.49571 -7.01148,8.91985 0.10586,0.17127 0.3962,-0.021 0.72959,-0.48306 0.30457,-0.42215 1.70407,-2.13676 3.10999,-3.81025 z m -8.10815,-4.80103 c -0.0579,-0.45775 -0.23793,-0.96377 -0.39998,-1.12448 -0.21557,-0.21378 -0.26087,-0.18569 -0.16879,0.10467 0.0692,0.21828 0.19762,0.7243 0.2853,1.12448 0.21755,0.99282 0.41322,0.92057 0.28347,-0.10467 z m 7.16592,-1.2163 c -0.18349,-0.18348 -0.68545,0.18933 -0.68545,0.50909 0,0.17544 0.15181,0.15537 0.40327,-0.0533 0.22179,-0.18408 0.34878,-0.38917 0.28218,-0.45577 z m -0.81411,-3.72453 c -0.17946,-0.17945 -0.91322,0.48237 -1.243,1.12114 -0.21562,0.41765 -0.0848,0.36358 0.54085,-0.22354 0.45391,-0.42595 0.76987,-0.82987 0.70215,-0.8976 z m -8.34206,-3.55346 c 0.0102,-0.49938 -0.41758,-0.13109 -0.4571,0.39354 -0.035,0.46525 0.009,0.50773 0.20423,0.19844 0.13685,-0.21644 0.25064,-0.48284 0.25287,-0.59198 z m 3.77031,-9.726145 c -0.91173,-0.84943 -2.07259,-2.04102 -2.57968,-2.64797 -0.5071,-0.60696 -0.922,-0.96789 -0.922,-0.80206 0,0.4056 4.80311,5.35264 5.00239,5.15229 0.0863,-0.0868 -0.58897,-0.85283 -1.50071,-1.70226 z m 17.92755,-3.835 c 0.27213,0.16818 0.65541,-0.3596 0.42702,-0.588 -0.20383,-0.20382 -1.22121,0.71488 -1.2107,1.09328 0.004,0.15934 0.13081,0.0788 0.28085,-0.17887 0.15004,-0.25772 0.37631,-0.40461 0.50283,-0.32641 z m -6.61256,-1.82253 c 0,-0.0572 -0.18478,-0.17489 -0.41061,-0.26155 -0.23546,-0.0904 -0.34167,-0.046 -0.24897,0.10398 0.15538,0.25141 0.65958,0.37186 0.65958,0.15757 z m 7.40834,-10.21476 c 0,-0.14552 -0.11907,-0.26459 -0.26459,-0.26459 -0.14552,0 -0.26458,0.11907 -0.26458,0.26459 0,0.14552 0.11906,0.26458 0.26458,0.26458 0.14552,0 0.26459,-0.11906 0.26459,-0.26458 z m 12.7,-0.64585 c 0,-0.0642 -0.11907,-0.19026 -0.26459,-0.28019 -0.14552,-0.0899 -0.26458,-0.0374 -0.26458,0.11667 0,0.15411 0.11906,0.2802 0.26458,0.2802 0.14552,0 0.26459,-0.0525 0.26459,-0.11668 z m -11.59178,35.825125 c -0.31848,-0.29671 -0.57906,-0.65389 -0.57906,-0.79375 0,-0.42769 0.2036,-0.28931 0.79375,0.53948 0.66046,0.92753 0.59332,1.00705 -0.21469,0.25427 z m 14.15563,-2.55411 c -0.0915,-0.14799 0.12769,-0.54526 0.48701,-0.88282 0.76127,-0.71518 0.87807,-0.32855 0.16629,0.55046 -0.28289,0.34936 -0.5567,0.48866 -0.6533,0.33236 z m -0.1826,-1.28694 c 0.3638,-0.42837 0.6793,-0.81654 0.7011,-0.8626 0.0218,-0.0461 0.0956,0.0135 0.16405,0.13229 0.0684,0.11883 -0.24708,0.507 -0.70111,0.8626 l -0.8255,0.64656 z m -17.28612,-0.0292 c -0.097,-0.097 -0.17638,-0.33513 -0.17638,-0.52916 0,-0.53583 1.26215,-0.43681 1.40511,0.11024 0.11524,0.44097 0.12246,0.44097 0.15169,0 0.0395,-0.5964 1.01596,-0.61116 1.66351,-0.0251 0.26612,0.24083 0.48385,0.31028 0.48385,0.15433 0,-0.15594 -0.14883,-0.34359 -0.33073,-0.41699 -0.1819,-0.0734 -0.0587,-0.14285 0.27389,-0.15434 0.51399,-0.0177 0.56357,-0.0976 0.33073,-0.53266 -0.39496,-0.73801 -0.34184,-0.89063 0.25564,-0.73439 0.31491,0.0824 0.46322,0.0312 0.36591,-0.12627 -0.14921,-0.24143 -1.54168,-0.20133 -2.46063,0.0709 -0.24828,0.0735 -0.43942,-0.18725 -0.56691,-0.77346 -0.20619,-0.9481 -0.66084,-1.57022 -0.94204,-1.28902 -0.0949,0.0949 0.0222,0.46972 0.26018,0.83295 0.23799,0.36322 0.43193,0.75389 0.43097,0.86815 -9.6e-4,0.11426 -0.2383,-0.14945 -0.52742,-0.58601 -1.08053,-1.63154 -0.46858,-3.88259 1.28013,-4.70901 0.63504,-0.30012 0.9861,-0.33128 2.46983,-0.21921 0.72073,0.0544 1.99438,1.52713 2.18099,2.52184 0.23359,1.24512 -0.33025,2.50473 -1.53121,3.42075 -1.09752,0.83712 -1.05048,1.26558 0.12392,1.12884 0.44022,-0.0513 0.95901,0.07 1.16014,0.2711 0.44231,0.44231 0.76911,0.4798 0.50864,0.0583 -0.1217,-0.1969 -0.072,-0.2333 0.13973,-0.10243 0.57541,0.35563 -0.12416,0.72608 -1.54601,0.81869 -0.78068,0.0508 -1.34658,-0.0236 -1.34658,-0.17716 0,-0.14568 0.1177,-0.19212 0.26155,-0.10321 0.15157,0.0937 0.19337,-0.016 0.0994,-0.2609 -0.14057,-0.36633 -0.21174,-0.35173 -0.53495,0.10972 -0.30202,0.43119 -0.60357,0.51408 -1.58802,0.43651 -0.66837,-0.0527 -1.31743,-0.25705 -1.44235,-0.45419 -0.20608,-0.32524 -0.34567,-0.13192 -0.26656,0.36917 0.0388,0.24593 -0.3476,0.26047 -0.58603,0.022 z m 5.37987,-0.33716 c 0,-0.13693 -0.11907,-0.32255 -0.26459,-0.41249 -0.14552,-0.0899 -0.26458,0.0221 -0.26458,0.24897 0,0.22687 0.11906,0.41249 0.26458,0.41249 0.14552,0 0.26459,-0.11204 0.26459,-0.24897 z m 0.62046,-0.15932 c -0.0862,-0.22455 -0.21342,-0.35154 -0.28277,-0.28218 -0.0694,0.0694 -0.0476,0.25308 0.0483,0.40828 0.26089,0.42214 0.41338,0.34013 0.23447,-0.1261 z m 0.0361,-3.37561 c 0.22488,-0.53823 0.35625,-0.9786 0.29194,-0.9786 -0.36746,0 -0.94849,0.93003 -0.94849,1.51821 0,0.83531 0.12499,0.73258 0.65655,-0.53961 z m -4.06384,-0.62803 c -0.2306,-0.39655 -0.28223,-0.40798 -0.28884,-0.0639 -0.009,0.44558 0.26967,0.84677 0.45718,0.65926 0.0619,-0.0618 -0.0139,-0.32974 -0.16834,-0.59532 z m 2.87812,0.31089 c 0,-0.21828 -0.0468,-0.39688 -0.10398,-0.39688 -0.0572,0 -0.17252,0.1786 -0.25629,0.39688 -0.0838,0.21828 -0.037,0.39687 0.10399,0.39687 0.14095,0 0.25628,-0.17859 0.25628,-0.39687 z m -3.30729,-1.98438 c -0.0899,-0.14552 -0.0474,-0.26458 0.0946,-0.26458 0.14198,0 0.31292,0.14883 0.37986,0.33073 0.067,0.1819 0.20864,0.004 0.31486,-0.39505 0.11504,-0.4323 0.31546,-0.65795 0.49564,-0.55804 0.16638,0.0923 0.10129,-0.046 -0.14464,-0.30724 -0.42189,-0.44814 -0.48568,-0.44973 -1.12896,-0.0282 -0.56502,0.37022 -0.63412,0.53583 -0.40343,0.96687 0.1531,0.28608 0.34073,0.52014 0.41696,0.52014 0.0762,0 0.065,-0.11907 -0.0249,-0.26459 z m 3.9226,-0.37201 c 0.15282,-0.39825 -0.58621,-1.21549 -1.09917,-1.21549 -0.33761,0 -0.4026,0.50888 -0.14929,1.16899 0.19902,0.51864 1.05504,0.55052 1.24846,0.0465 z m 11.02636,6.50153 c 0,-0.16978 -0.0893,-0.29458 -0.19844,-0.27735 -0.10914,0.0172 -0.37703,0.0136 -0.59531,-0.008 -0.31948,-0.0317 -0.30658,-0.092 0.0661,-0.30907 0.25466,-0.14832 0.46302,-0.39741 0.46302,-0.55351 0,-0.17185 -0.18268,-0.14057 -0.46302,0.0793 -0.41776,0.32763 -0.42821,0.31869 -0.10691,-0.0914 0.19585,-0.25001 0.49351,-0.4286 0.66145,-0.39687 0.16795,0.0317 0.27264,-0.1 0.23266,-0.29271 -0.0413,-0.19892 0.0545,-0.2718 0.22149,-0.16858 0.21184,0.13093 0.21368,0.26233 0.007,0.46946 -0.15821,0.1582 -0.28764,0.4067 -0.28764,0.55222 0,0.14699 0.14111,0.12347 0.3175,-0.0529 0.4507,-0.4507 0.74149,-0.39327 0.73678,0.14552 -0.003,0.3957 -0.0414,0.40532 -0.26053,0.0661 -0.14107,-0.21828 -0.26742,-0.33734 -0.28078,-0.26458 -0.16519,0.89951 -0.23101,1.12914 -0.36083,1.25896 -0.0837,0.0837 -0.15214,0.0132 -0.15214,-0.15653 z m -14.11111,-1.27882 c -0.38314,-0.38314 -0.14895,-0.65983 0.27002,-0.31903 0.39093,0.31799 0.42485,0.30558 0.27289,-0.0999 -0.0954,-0.25466 -0.0709,-0.46302 0.0544,-0.46302 0.42427,0 0.51864,0.74885 0.11395,0.90415 -0.49975,0.19177 -0.49726,0.19185 -0.7113,-0.0222 z m 12.7605,-0.68336 c 0.34858,-0.3913 0.73553,-0.64856 0.8599,-0.57169 0.33438,0.20666 0.27437,0.38275 -0.10461,0.30696 -0.1819,-0.0364 -0.29104,0.11245 -0.24253,0.33073 0.0485,0.21828 -7e-5,0.30861 -0.10795,0.20073 -0.10788,-0.10788 -0.38569,-0.0519 -0.61736,0.12428 -0.23167,0.17624 -0.13602,2.7e-4 0.21255,-0.39101 z m 9.02714,-0.0663 c 0.99468,-1.20018 1.58388,-1.76532 1.58388,-1.51921 0,0.12166 -0.50438,0.69184 -1.12085,1.26708 -0.79334,0.74028 -0.92864,0.81395 -0.46303,0.25213 z m -9.5518,-0.33072 c 0.32361,-0.47295 0.72209,-0.8599 0.88552,-0.8599 0.17491,0 0.14029,0.13605 -0.0842,0.33073 -0.20972,0.1819 -0.6082,0.56885 -0.88552,0.85989 -0.37038,0.38872 -0.34804,0.30093 0.0842,-0.33072 z m -0.90849,-0.32042 c 0.0214,-0.29078 0.12075,-0.6105 0.22073,-0.71048 0.1,-0.1 0.17799,-0.31076 0.17336,-0.46841 -0.005,-0.15765 -0.17941,-0.0607 -0.3884,0.21537 -0.20899,0.2761 -0.31544,0.63329 -0.23655,0.79375 0.0789,0.16046 -0.032,0.0771 -0.24633,-0.1853 -0.29306,-0.35867 -0.42405,-0.39149 -0.5279,-0.13229 -0.0832,0.2077 -0.14643,0.22493 -0.15902,0.0433 -0.0115,-0.16578 0.18748,-0.52549 0.44214,-0.79935 0.25466,-0.27386 0.37372,-0.3823 0.26458,-0.24098 -0.41901,0.54257 -0.17283,0.73912 0.34209,0.27313 0.52861,-0.47839 0.544,-0.47588 0.69816,0.11365 0.1181,0.45162 0.21379,0.51426 0.38147,0.24973 0.1231,-0.19421 0.22565,-0.22502 0.22787,-0.0685 0.002,0.15653 -0.27387,0.5457 -0.61355,0.86482 -0.5976,0.56141 -0.61634,0.56308 -0.57865,0.0515 z m -27.49403,-2.20454 c 0.0994,-0.26093 0.24731,-0.40778 0.32877,-0.32632 0.0815,0.0815 1.7e-4,0.29496 -0.18066,0.47444 -0.2613,0.25936 -0.29169,0.22897 -0.14811,-0.14812 z m 28.14732,-1.62754 c 0.34936,-0.37188 0.67499,-0.67615 0.72362,-0.67615 0.23846,0 -0.61802,1.06802 -0.96249,1.20021 -0.21799,0.0836 -0.1105,-0.15218 0.23887,-0.52406 z m -21.68204,-0.80844 c 0.34178,-0.3638 0.68094,-0.66146 0.7537,-0.66146 0.0728,0 -0.14734,0.29766 -0.48911,0.66146 -0.34178,0.3638 -0.68094,0.66146 -0.7537,0.66146 -0.0728,0 0.14734,-0.29766 0.48911,-0.66146 z m 23.01345,-1.593905 c -0.18408,-0.22179 -0.28344,-0.4545 -0.22082,-0.51713 0.0626,-0.0626 0.2592,0.11885 0.43682,0.40327 0.38413,0.61508 0.25602,0.68261 -0.216,0.11386 z m -24.31541,-1.7578 c -0.81142,-0.73751 -0.85977,-0.85578 -0.46713,-1.14288 0.24087,-0.17614 0.35051,-0.41686 0.24363,-0.53494 -0.10688,-0.11808 -0.0461,-0.12944 0.13498,-0.0252 0.18112,0.1042 0.46089,0.43531 0.62171,0.73581 0.22936,0.42856 0.21997,0.50159 -0.0435,0.33873 -0.2412,-0.14906 -0.28595,-0.0773 -0.15869,0.2543 0.0975,0.25405 0.17725,0.53447 0.17725,0.62314 0,0.0887 0.18517,-0.0699 0.41147,-0.35237 0.39996,-0.49921 0.40392,-0.4979 0.1416,0.0469 -0.14842,0.30829 -0.19468,0.63571 -0.10279,0.72761 0.0919,0.0919 0.11747,0.16359 0.0568,0.15932 -0.0606,-0.004 -0.51753,-0.37794 -1.01533,-0.8304 z m 7.45353,0.65655 c -0.47457,-0.18234 -0.40846,-1.31945 0.0878,-1.50988 0.85247,-0.32712 1.49989,-0.18587 1.3182,0.28759 -0.16162,0.42119 -0.14216,0.42119 0.32326,0 0.27238,-0.2465 0.63469,-0.44819 0.80513,-0.44819 0.17045,0 0.3099,-0.11906 0.3099,-0.26458 0,-0.14552 0.11906,-0.26458 0.26458,-0.26458 0.14552,0 0.26459,0.53578 0.26459,1.19062 0,1.04554 -0.07,1.19063 -0.57448,1.19063 -0.31597,0 -0.80103,-0.20502 -1.07791,-0.4556 -0.33849,-0.30633 -0.47534,-0.33986 -0.41771,-0.10234 0.0887,0.36546 -0.72225,0.59962 -1.30334,0.37633 z m 0.87077,-0.62975 c 0.24351,-0.394 -0.0388,-0.60822 -0.5454,-0.41382 -0.23378,0.0897 -0.35095,0.28301 -0.26038,0.42956 0.21446,0.34701 0.58608,0.33975 0.80578,-0.0157 z m 1.9735,-0.11469 c 0,-0.21828 -0.17859,-0.39687 -0.39688,-0.39687 -0.21828,0 -0.39687,0.17859 -0.39687,0.39687 0,0.21829 0.17859,0.39688 0.39687,0.39688 0.21829,0 0.39688,-0.17859 0.39688,-0.39688 z m 0.80916,-0.13229 c -0.0133,-0.7282 -0.26114,-1.60914 -0.63808,-2.26821 l -0.6163,-1.07759 0.7406,-0.42504 0.7406,-0.42505 0.80493,1.30817 c 0.44271,0.7195 0.80492,1.36592 0.80492,1.43649 0,0.0706 -0.35719,0.12832 -0.79375,0.12832 -0.64141,0 -0.79375,0.11171 -0.79375,0.58208 0,0.45273 0.0706,0.51153 0.3175,0.26458 0.17463,-0.17462 0.53181,-0.3175 0.79375,-0.3175 0.26194,0 0.47625,-0.11906 0.47625,-0.26458 0,-0.14552 0.11906,-0.26458 0.26459,-0.26458 0.14552,0 0.26458,0.26193 0.26458,0.58208 0,0.45273 0.0706,0.51153 0.3175,0.26458 0.53243,-0.53242 1.53458,-0.39419 1.53458,0.21167 0,0.29104 0.10584,0.52917 0.23519,0.52917 0.12935,0 0.21865,-0.20836 0.19844,-0.46302 -0.0257,-0.32335 0.15608,-0.46302 0.60246,-0.46302 0.49829,0 0.66084,0.16142 0.73727,0.73219 0.11552,0.86259 -0.51612,1.2391 -1.27924,0.76253 -0.27176,-0.16972 -0.49412,-0.199 -0.49412,-0.0651 0,0.37027 -1.35095,0.14244 -1.61353,-0.2721 -0.18573,-0.29322 -0.23124,-0.28039 -0.2345,0.0661 -0.005,0.55067 -1.19255,0.57999 -1.64029,0.0405 -0.28043,-0.33791 -0.34867,-0.32477 -0.51552,0.0992 -0.12672,0.32202 -0.19973,0.0826 -0.21408,-0.70196 z m 1.77604,0.0496 c 0.0576,-0.1728 -0.0838,-0.31419 -0.31419,-0.31419 -0.23041,0 -0.41893,0.18852 -0.41893,0.41892 0,0.46724 0.56959,0.38587 0.73312,-0.10473 z m 2.02648,0.24496 c 0.0798,-0.12904 -0.0217,-0.37294 -0.22541,-0.54202 -0.41242,-0.34227 -0.83473,0.051 -0.54981,0.51204 0.20246,0.32758 0.58221,0.34227 0.77522,0.03 z m 8.08301,0.3605 c -0.18407,-0.2218 -0.28159,-0.45636 -0.21671,-0.52125 0.0649,-0.0649 0.31882,0.11659 0.56429,0.40327 0.24546,0.28669 0.34298,0.52125 0.2167,0.52125 -0.12628,0 -0.3802,-0.18147 -0.56428,-0.40327 z m 3.70948,0.0559 c 0,-0.0455 0.38695,-0.43249 0.85989,-0.85989 l 0.8599,-0.77711 -0.77711,0.8599 c -0.72437,0.80154 -0.94268,0.98151 -0.94268,0.7771 z m -4.76781,-1.11423 c -0.18408,-0.22179 -0.28344,-0.4545 -0.22082,-0.51713 0.0626,-0.0626 0.2592,0.11885 0.43682,0.40327 0.38413,0.61508 0.25602,0.68261 -0.216,0.11386 z m -21.27212,-0.98369 c -1.15532,-1.10796 -1.60748,-1.25817 -1.40009,-0.46512 0.0919,0.35138 0.008,0.52917 -0.24934,0.52917 -0.21325,0 -0.31426,-0.11886 -0.22449,-0.26412 0.0898,-0.14527 -0.0223,-0.52895 -0.24896,-0.85262 -0.22672,-0.32368 -0.41221,-0.44295 -0.41221,-0.26505 0,0.49552 0.113,0.72676 0.32121,0.65736 0.1039,-0.0346 0.12297,0.10886 0.0424,0.31889 -0.12019,0.3132 -0.24644,0.28879 -0.70213,-0.13574 -0.54749,-0.51008 -0.54811,-0.52309 -0.0424,-0.89401 0.44572,-0.3269 0.57128,-0.32403 0.95471,0.0218 0.39601,0.35718 0.49922,0.34048 1.00184,-0.16214 0.30819,-0.30819 0.4775,-0.69439 0.37624,-0.85822 -0.12174,-0.19698 -0.34908,-0.0941 -0.67111,0.30354 -0.26785,0.33079 -0.48701,0.48376 -0.48701,0.33993 0,-0.14382 0.17729,-0.40863 0.39397,-0.58846 0.21667,-0.17982 0.32506,-0.43843 0.24085,-0.57469 -0.0842,-0.13625 -0.35743,-0.0121 -0.60715,0.2758 -0.31322,0.36113 -0.57258,0.44998 -0.83617,0.28642 -0.31855,-0.19766 -0.28387,-0.33559 0.20844,-0.82903 l 0.59057,-0.59193 0.77854,0.74589 c 0.42819,0.41023 0.71473,0.91216 0.63674,1.11538 -0.10196,0.2657 -0.003,0.32149 0.35069,0.19861 0.44252,-0.15355 0.4388,-0.12882 -0.0367,0.24377 -0.39568,0.31006 -0.45346,0.49152 -0.22906,0.71935 0.22572,0.22917 0.39557,0.16841 0.68519,-0.24509 0.2118,-0.30238 0.46295,-0.47192 0.55811,-0.37675 0.0952,0.0952 -0.0643,0.33928 -0.35446,0.54248 -0.77405,0.54216 -0.64462,0.95758 0.13848,0.44447 0.63364,-0.41518 0.65692,-0.41226 0.47963,0.06 -0.17046,0.45408 -0.14265,0.46296 0.32622,0.10408 0.48934,-0.37453 0.49315,-0.36854 0.0841,0.13229 -0.23567,0.28854 -0.4738,0.64462 -0.52917,0.7913 -0.0554,0.14668 -0.56722,-0.18075 -1.13746,-0.72761 z m -1.97217,-3.04481 c 0.32911,-0.41964 0.31975,-0.429 -0.0999,-0.0999 -0.25466,0.19972 -0.46302,0.40808 -0.46302,0.46302 0,0.21776 0.21727,0.0776 0.56291,-0.36313 z m 22.18594,2.97017 c -0.18407,-0.2218 -0.26783,-0.47012 -0.18612,-0.55183 0.0817,-0.0817 0.28146,0.0998 0.44389,0.40327 0.34656,0.64756 0.21791,0.72171 -0.25777,0.14856 z m 7.67823,0.32048 c 0,-0.0455 0.38695,-0.43249 0.85989,-0.8599 l 0.8599,-0.7771 -0.7771,0.85989 c -0.72438,0.80155 -0.94269,0.98152 -0.94269,0.77711 z m -20.37292,-0.41595 c 0,-0.12878 0.30755,-0.43566 0.68345,-0.68196 0.64663,-0.42369 0.70318,-0.42177 1.04991,0.0357 0.56701,0.74809 0.46557,0.8804 -0.67502,0.8804 -0.58209,0 -1.05834,-0.10537 -1.05834,-0.23416 z m 4.40915,-1.51114 c -0.96562,-1.65107 -0.99127,-1.753 -0.52916,-2.10319 0.8114,-0.61488 1.06368,-0.45257 2.05681,1.32331 0.52539,0.93949 1.07142,1.77995 1.21339,1.8677 0.55939,0.34572 0.20891,0.65723 -0.73404,0.65241 -0.94085,-0.005 -1.0447,-0.0949 -2.007,-1.74023 z m 6.93419,0.22394 c -0.32911,-0.41964 -0.31975,-0.429 0.0999,-0.0999 0.44073,0.34564 0.58089,0.56291 0.36313,0.56291 -0.0549,0 -0.2633,-0.20836 -0.46302,-0.46302 z m -22.32355,-0.33073 c 0.0899,-0.14552 0.27556,-0.26458 0.41249,-0.26458 0.13693,0 0.24897,0.11906 0.24897,0.26458 0,0.14552 -0.18562,0.26459 -0.41249,0.26459 -0.22687,0 -0.33891,-0.11907 -0.24897,-0.26459 z m 23.34507,-1.88491 c 0.17948,-0.18082 0.39297,-0.26212 0.47443,-0.18065 0.0815,0.0815 -0.0654,0.2294 -0.32631,0.32876 -0.37709,0.14359 -0.40748,0.1132 -0.14812,-0.14811 z m 8.02895,-2.23818 c 0.0127,-0.30822 0.0754,-0.37092 0.15985,-0.15985 0.0764,0.191 0.067,0.4192 -0.0209,0.50712 -0.0879,0.0879 -0.15045,-0.0684 -0.13896,-0.34727 z m -3.59277,-2.22691 c 0.26339,-0.29104 0.53843,-0.52916 0.61119,-0.52916 0.0728,0 -0.0832,0.23812 -0.3466,0.52916 -0.26339,0.29104 -0.53842,0.52917 -0.61118,0.52917 -0.0728,0 0.0832,-0.23813 0.34659,-0.52917 z m 3.70417,-3.96875 c 0.26339,-0.29104 0.53842,-0.52916 0.61118,-0.52916 0.0728,0 -0.0832,0.23812 -0.3466,0.52916 -0.26339,0.29105 -0.53842,0.52917 -0.61118,0.52917 -0.0728,0 0.0832,-0.23812 0.3466,-0.52917 z m 2.09883,-2.0878 c 0.18877,-0.30543 1.20846,-0.92145 1.20846,-0.73006 0,0.0611 -0.31231,0.31581 -0.69403,0.56592 -0.38172,0.25011 -0.61322,0.32398 -0.51443,0.16414 z m -5.14154,-0.70928 c 0,-0.36019 1.07052,-1.51226 1.244,-1.33878 0.0729,0.0729 -0.17724,0.46646 -0.55577,0.87469 -0.37852,0.40822 -0.68823,0.61706 -0.68823,0.46409 z m -9.36492,-0.87638 c -0.24972,-0.27593 -0.98082,-0.83468 -1.62466,-1.24165 -0.64385,-0.40697 -1.11422,-0.79636 -1.04527,-0.86531 0.069,-0.069 0.36421,0.0908 0.65615,0.355 0.29193,0.26419 0.53079,0.40354 0.53079,0.30965 0,-0.15902 0.21549,-5.6e-4 1.65219,1.21485 0.30212,0.25558 0.4898,0.5242 0.41707,0.59693 -0.0727,0.0727 -0.33655,-0.0935 -0.58627,-0.36947 z m -3.96928,-2.63244 c -0.075,-0.12127 0.0371,-0.22049 0.24897,-0.22049 0.21187,0 0.38523,0.0992 0.38523,0.22049 0,0.12127 -0.11203,0.22049 -0.24897,0.22049 -0.13693,0 -0.31029,-0.0992 -0.38523,-0.22049 z"
       id="path111" />
    <path
       style="fill:none;stroke:#000000;stroke-width:0.264583px;stroke-linecap:butt;stroke-linejoin:miter;stroke-opacity:1"
       d="m 141.08434,121.68403 c -6.24472,-6.06114 -8.42983,-13.59652 -8.00921,-17.81358 0.61923,-26.053674 17.24572,-29.653849 26.66242,-30.806536 24.66159,1.080529 27.46119,20.273581 29.08051,32.839856 -2.13649,12.33883 -13.45186,26.16807 -32.65227,23.65901 -10.90017,-2.54676 -12.86668,-7.30148 -15.08145,-7.87875 z"
       id="path634"
       sodipodi:nodetypes="cccccc" />
  </g>
</svg>
