<?xml version="1.0" encoding="UTF-8" standalone="no"?>
<!-- Created with Inkscape (http://www.inkscape.org/) -->

<svg
   width="210mm"
   height="297mm"
   viewBox="0 0 210 297"
   version="1.1"
   id="svg1243"
   inkscape:version="1.1.1 (3bf5ae0d25, 2021-09-20)"
   sodipodi:docname="rysunekpuchar.svg"
   xmlns:inkscape="http://www.inkscape.org/namespaces/inkscape"
   xmlns:sodipodi="http://sodipodi.sourceforge.net/DTD/sodipodi-0.dtd"
   xmlns="http://www.w3.org/2000/svg"
   xmlns:svg="http://www.w3.org/2000/svg">
  <sodipodi:namedview
     id="namedview1245"
     pagecolor="#505050"
     bordercolor="#eeeeee"
     borderopacity="1"
     inkscape:pageshadow="0"
     inkscape:pageopacity="0"
     inkscape:pagecheckerboard="0"
     inkscape:document-units="mm"
     showgrid="false"
     inkscape:zoom="0.12787542"
     inkscape:cx="-1540.5619"
     inkscape:cy="2553.2663"
     inkscape:window-width="1920"
     inkscape:window-height="1001"
     inkscape:window-x="-9"
     inkscape:window-y="-9"
     inkscape:window-maximized="1"
     inkscape:current-layer="layer1" />
  <defs
     id="defs1240" />
  <g
     inkscape:label="Warstwa 1"
     inkscape:groupmode="layer"
     id="layer1">
    <path
       style="fill:#000000;stroke-width:0.264583"
       d="m 109.67204,185.99846 c -4.52364,-0.34786 -7.44419,-2.64784 -6.93638,-5.46252 0.22971,-1.27321 0.59513,-1.96079 0.93156,-1.75285 0.14796,0.0914 0.24195,0.005 0.20888,-0.19103 -0.0331,-0.1965 0.0811,-0.70043 0.25363,-1.11983 0.17256,-0.41941 0.24505,-0.979 0.16109,-1.24355 -0.18415,-0.58021 0.58662,-2.17668 0.9442,-1.95569 0.50172,0.31008 0.82342,-0.18328 0.34677,-0.53181 -0.43834,-0.32052 -0.41088,-0.45457 0.44185,-2.15741 0.50007,-0.99861 0.98246,-1.87519 1.07197,-1.94795 0.0895,-0.0728 0.27991,-1.91823 0.42311,-4.10104 0.28186,-4.29656 0.0282,-6.20259 -1.17978,-8.86354 -0.67705,-1.49147 -1.52711,-4.44673 -2.169,-7.54063 -0.27172,-1.30968 -0.68155,-2.90223 -0.91074,-3.53899 -0.22918,-0.63676 -0.4167,-1.34225 -0.4167,-1.56776 0,-0.22552 -0.42359,-1.2673 -0.94131,-2.31509 -1.74341,-3.52839 -2.235849,-7.04486 -1.17535,-8.39306 0.29104,-0.37 0.5299,-0.89207 0.53079,-1.16016 9e-4,-0.26809 0.16827,-0.80684 0.37194,-1.19722 0.20367,-0.39038 0.45075,-1.07603 0.54907,-1.52366 0.0983,-0.44764 0.27956,-0.75158 0.40276,-0.67544 0.1232,0.0761 0.30013,-0.10141 0.39318,-0.39457 0.093,-0.29315 0.26906,-0.533 0.39115,-0.533 0.12209,0 0.16972,-0.20836 0.10585,-0.46302 -0.0704,-0.28077 0.28235,-0.8953 0.89624,-1.56125 0.82202,-0.89171 1.14426,-1.07301 1.71373,-0.96414 0.55746,0.10656 0.71794,0.30475 0.78218,0.96592 0.0487,0.50102 -0.077,0.96366 -0.31606,1.16324 -0.33876,0.28285 -0.31939,0.30691 0.13229,0.16427 0.43253,-0.13658 0.39629,-0.0381 -0.19844,0.53923 -0.73679,0.71525 -1.00604,1.41963 -0.39687,1.03825 0.1819,-0.11388 0.44979,-0.21155 0.59531,-0.21705 0.14552,-0.005 0.62177,-0.20167 1.05834,-0.43595 0.43656,-0.23427 1.0914,-0.40101 1.4552,-0.37053 0.36381,0.0305 1.06012,-0.11039 1.54737,-0.31307 0.48725,-0.20267 1.32069,-0.33224 1.85209,-0.28793 0.83271,0.0694 0.96617,0.17194 0.96617,0.74203 0,0.66787 -0.0994,0.70541 -1.05833,0.39963 -0.29105,-0.0928 -0.17198,0.0347 0.26458,0.28344 0.43656,0.2487 0.85328,0.52417 0.92604,0.61216 0.30498,0.3688 1.60141,0.29931 1.75231,-0.0939 0.23708,-0.61782 0.98428,-0.51858 0.82018,0.10894 -0.0743,0.28406 10e-4,0.56542 0.16758,0.62523 0.16645,0.0598 0.22494,0.19284 0.12997,0.2956 -0.095,0.10277 -0.41264,0.037 -0.70593,-0.14617 -0.42198,-0.26353 -0.66199,-0.26565 -1.15024,-0.0102 -0.45086,0.23593 -0.47451,0.28083 -0.0878,0.16672 0.40589,-0.11977 0.45694,-0.0833 0.21912,0.15635 -0.17053,0.17188 -0.24709,0.47659 -0.17013,0.67713 0.20436,0.53257 1.34542,0.45662 1.47817,-0.0984 0.10286,-0.43008 0.12581,-0.42818 0.32253,0.0267 0.1336,0.30891 0.0916,0.564 -0.11371,0.6909 -0.33615,0.20775 0.0624,0.40156 1.70361,0.82848 0.64421,0.16757 0.59437,0.18197 -0.26459,0.0764 -1.5459,-0.18995 -2.24763,-0.18242 -3.51107,0.0377 -0.93778,0.16339 -1.10438,0.13055 -0.98014,-0.1932 0.0823,-0.21452 -0.04,-0.54743 -0.27177,-0.7398 -0.33737,-0.27999 -0.35297,-0.39746 -0.0782,-0.58889 0.22255,-0.15504 0.12227,-0.17654 -0.28519,-0.0611 -0.46772,0.13245 -0.57568,0.0926 -0.42214,-0.15584 0.12943,-0.20943 0.0992,-0.26764 -0.0811,-0.15621 -0.38677,0.23904 -1.11434,-0.84 -0.93251,-1.38299 0.0797,-0.23795 -0.0613,-0.1559 -0.31332,0.18234 -0.43886,0.58901 -0.43511,0.63649 0.0887,1.12448 0.30079,0.28022 0.65648,0.5095 0.79043,0.5095 0.13396,0 0.38511,0.34174 0.55812,0.75942 0.42026,1.0146 1.27268,1.37572 2.56132,1.08509 0.56362,-0.12712 1.05453,-0.23695 1.09091,-0.24407 0.0364,-0.007 0.28546,0.20637 0.55351,0.47442 0.28378,0.28378 1.06007,0.55519 1.85839,0.64974 0.75406,0.0893 1.51702,0.25615 1.69545,0.37077 0.42776,0.27478 1.51609,0.29536 1.34932,0.0255 -0.0716,-0.11576 -0.0486,-0.34225 0.0509,-0.50331 0.12932,-0.20926 0.23761,-0.20119 0.37941,0.0283 0.14181,0.22944 0.25009,0.2375 0.37942,0.0282 0.0995,-0.16106 0.0403,-0.29283 -0.13162,-0.29283 -0.22096,0 -0.20615,-0.13439 0.0505,-0.45846 0.34329,-0.43342 0.32505,-0.43417 -0.33416,-0.0138 -0.3835,0.24458 -0.76225,0.37971 -0.84166,0.3003 -0.23496,-0.23496 0.11679,-0.89721 0.38763,-0.72982 0.28791,0.17794 1.01902,-0.36055 1.01902,-0.75055 0,-0.159 -0.14436,-0.14477 -0.36177,0.0357 -0.27762,0.23041 -0.44687,0.19178 -0.7276,-0.16604 -0.32845,-0.41863 -0.32061,-0.43091 0.0768,-0.12011 0.38372,0.30013 0.45438,0.26493 0.53121,-0.26458 0.0487,-0.33592 -0.0813,-0.74299 -0.28904,-0.90461 -0.32623,-0.25384 -0.32651,-0.34923 -0.002,-0.70056 0.33553,-0.36331 0.4099,-0.34607 0.69697,0.16156 0.17697,0.31296 0.32556,0.40614 0.33073,0.20742 0.0123,-0.47252 -1.08363,-2.41728 -1.36219,-2.41728 -0.32939,0 -0.25912,0.25913 0.19282,0.71107 0.44427,0.44427 0.40306,0.91453 -0.0947,1.08044 -0.20284,0.0676 -0.25143,-0.0592 -0.13694,-0.35759 0.10776,-0.28082 0.0728,-0.39775 -0.0889,-0.29778 -0.15993,0.0989 -0.24708,-0.15938 -0.21811,-0.6463 0.0319,-0.53702 -0.18372,-1.08785 -0.6385,-1.63079 -0.37772,-0.45093 -0.52248,-0.7193 -0.3217,-0.59638 0.25494,0.15608 0.32477,0.11262 0.23151,-0.14407 -0.0735,-0.20215 -0.24277,-0.34603 -0.37628,-0.31972 -0.1335,0.0263 -0.26026,-0.18495 -0.28169,-0.46946 -0.0329,-0.43681 0.10578,-0.3825 0.89128,0.34904 0.51164,0.47648 1.23265,1.37661 1.60224,2.00029 0.73989,1.24855 1.67425,4.01235 1.65955,4.90889 -0.009,0.54706 -0.0262,0.54319 -0.39903,-0.0897 l -0.38965,-0.66146 0.17303,0.76707 c 0.10242,0.454 0.0717,0.70445 -0.0752,0.61364 -0.13654,-0.0844 -0.26657,0.0898 -0.28896,0.38702 -0.0224,0.29724 -0.23298,0.75289 -0.46797,1.01256 -0.39888,0.44075 -0.37224,0.49956 0.401,0.8853 0.54541,0.27209 0.79271,0.30654 0.72416,0.10089 -0.0573,-0.17176 -0.39293,-0.40197 -0.74594,-0.51157 -0.53163,-0.16505 -0.49224,-0.18524 0.22941,-0.1176 0.63933,0.0599 0.83523,-0.0122 0.73591,-0.27105 -0.0794,-0.20706 0.047,-0.35272 0.30614,-0.35272 0.34338,0 0.37093,-0.0705 0.12399,-0.3175 -0.17463,-0.17462 -0.3175,-0.43097 -0.3175,-0.56965 0,-0.13868 0.22619,0.009 0.50265,0.32741 0.42598,0.49117 0.48218,0.87062 0.36845,2.48788 -0.0738,1.04958 -0.37018,2.56316 -0.6586,3.36353 -0.28842,0.80036 -0.79634,2.40771 -1.1287,3.57187 -0.33237,1.16417 -0.85751,2.93288 -1.16697,3.93048 -0.30947,0.99759 -0.56267,2.33704 -0.56267,2.97656 0,0.63952 -0.10791,1.16276 -0.23981,1.16276 -0.1319,0 -0.17754,0.23812 -0.10143,0.52916 0.0808,0.30914 0.008,0.52917 -0.1749,0.52917 -0.18827,0 -0.24907,0.20225 -0.15238,0.5069 0.0885,0.27879 0.037,0.58348 -0.11446,0.67707 -0.15145,0.0936 -0.27535,0.40467 -0.27535,0.69127 0,0.28661 -0.34307,1.20231 -0.76239,2.03491 -0.73476,1.45895 -1.31827,4.31515 -1.7687,8.65756 -0.23197,2.23635 0.683,5.8923 1.98651,7.9375 0.27825,0.43656 0.51461,0.97693 0.52524,1.20082 0.0106,0.2239 0.25747,0.87415 0.54851,1.44501 0.6524,1.27966 0.6574,1.62095 0.0414,2.82913 -0.35638,0.69902 -0.41712,1.08815 -0.22556,1.445 0.38698,0.7209 0.3998,0.72604 0.85935,0.34465 0.54873,-0.45541 0.82869,-0.0424 1.07478,1.58547 0.18733,1.23917 -0.21507,2.37058 -0.92695,2.60626 -0.2449,0.0811 -0.29748,0.008 -0.15755,-0.21811 0.13872,-0.22446 0.10486,-0.27481 -0.0998,-0.14833 -0.17038,0.1053 -0.24933,0.28926 -0.17545,0.40881 0.32097,0.51934 -3.40318,2.03604 -4.3752,1.78186 -0.28215,-0.0738 -0.513,-0.0353 -0.513,0.0855 0,0.30328 -3.66815,0.42848 -6.39963,0.21843 z m 9.55258,-1.18632 c 0.0606,-0.0523 0.0449,-0.1604 -0.0349,-0.24024 -0.21631,-0.2163 -1.53053,0.1645 -1.53053,0.44348 0,0.2121 1.27591,0.0465 1.56545,-0.20324 z m -12.54566,-0.0951 c -0.0899,-0.14552 -0.30532,-0.26276 -0.47863,-0.26053 -0.18934,0.002 -0.15671,0.10642 0.0818,0.26053 0.50829,0.32849 0.59989,0.32849 0.39687,0 z m 12.67238,-2.57378 c 0.42138,-0.21454 0.64759,-0.46735 0.5027,-0.56179 -0.14489,-0.0944 -0.33143,-0.35031 -0.41452,-0.5686 -0.0881,-0.23147 -0.15978,-0.0937 -0.17196,0.33073 -0.0115,0.40019 -0.13022,0.72761 -0.26383,0.72761 -0.13362,0 -0.45081,0.0798 -0.70487,0.17725 -0.31282,0.12005 -0.40077,0.0783 -0.27248,-0.12926 0.11887,-0.19233 0.0529,-0.25412 -0.17708,-0.16587 -0.20158,0.0774 -0.36652,0.31584 -0.36652,0.52997 0,0.43025 0.55348,0.32953 1.86856,-0.34004 z m -1.42759,-1.52726 c 0.18986,-0.22876 0.21557,-0.39688 0.0607,-0.39688 -0.14777,0 -0.33721,0.1786 -0.42097,0.39688 -0.0838,0.21828 -0.11108,0.39687 -0.0607,0.39687 0.0504,0 0.23981,-0.17859 0.42096,-0.39687 z m 0.40776,-1.47281 c 0.28204,-0.45635 0.0348,-0.49399 -0.67274,-0.10242 -0.63751,0.35282 -0.6404,0.36619 -0.0814,0.37523 0.31883,0.005 0.65818,-0.11761 0.7541,-0.27281 z m -0.6245,-2.78643 c 0.49488,-0.17641 0.87519,-0.90014 0.47302,-0.90014 -0.14095,0 -0.24791,-0.26789 -0.23768,-0.59531 0.0178,-0.56803 0.029,-0.57106 0.24599,-0.0661 0.20796,0.48396 0.22826,0.47266 0.23757,-0.1323 0.006,-0.3638 -0.15055,-0.87331 -0.34699,-1.13225 -0.30873,-0.40695 -0.37822,-0.41592 -0.51245,-0.0661 -0.0854,0.22256 -0.3376,0.40465 -0.56045,0.40465 -0.22285,0 -0.40518,0.1786 -0.40518,0.39688 0,0.21828 -0.11907,0.39687 -0.26459,0.39687 -0.14552,0 -0.26458,-0.16585 -0.26458,-0.36856 0,-0.45712 -0.71739,-0.76279 -0.94101,-0.40096 -0.0903,0.14613 -0.0993,0.43478 -0.02,0.64143 0.0793,0.20665 0.0303,0.4461 -0.10885,0.53211 -0.46564,0.28778 -0.25964,0.80579 0.33837,0.85084 0.32526,0.0245 0.63309,0.16964 0.68405,0.32254 0.051,0.15289 0.20156,0.21068 0.33465,0.12843 0.13309,-0.0823 0.24199,-0.0136 0.24199,0.15269 0,0.16624 0.14882,0.23287 0.33073,0.14808 0.1819,-0.0848 0.53085,-0.22551 0.77544,-0.31271 z m -0.24628,-0.5462 c -0.37847,-0.15272 -0.4496,-0.61852 -0.0944,-0.61852 0.12995,0 0.30481,0.17859 0.38857,0.39688 0.0838,0.21828 0.12627,0.38747 0.0945,0.37598 -0.0318,-0.0115 -0.20668,-0.0809 -0.38858,-0.15434 z m -7.81279,-0.24197 c -0.23174,-0.19488 -1.77835,0.28106 -1.77835,0.54726 0,0.25403 0.22113,0.23435 0.91845,-0.0817 0.50515,-0.22896 0.8921,-0.43845 0.8599,-0.46554 z m 4.94021,-0.2659 c 0.24838,-0.64724 0.19453,-0.73276 -0.23627,-0.37523 -0.43984,0.36503 -0.52658,0.79375 -0.1606,0.79375 0.12995,0 0.30854,-0.18833 0.39687,-0.41852 z m -1.55919,-0.11065 c -0.0899,-0.14552 -0.30532,-0.26276 -0.47863,-0.26053 -0.18934,0.002 -0.15671,0.10642 0.0818,0.26053 0.50829,0.32849 0.59989,0.32849 0.39687,0 z m 6.8773,0.003 c 0.0927,-0.14998 -0.0135,-0.19434 -0.24897,-0.10399 -0.45837,0.1759 -0.54224,0.36554 -0.16165,0.36554 0.13693,0 0.32171,-0.1177 0.41062,-0.26155 z m -10.44917,-0.27057 c 0,-0.14389 0.18562,-0.26162 0.41249,-0.26162 0.22687,0 0.34877,-0.10309 0.27089,-0.2291 -0.0779,-0.126 -0.44208,-0.17165 -0.80936,-0.10144 -0.74073,0.1416 -0.87111,-0.11573 -0.28694,-0.56633 0.33139,-0.25561 0.33139,-0.33804 0,-0.63491 -0.22983,-0.20589 -0.39395,-0.23211 -0.41391,-0.0662 -0.064,0.53191 -0.10921,0.67487 -0.31732,1.00262 -0.12474,0.19646 -0.0831,0.33073 0.1026,0.33073 0.22479,0 0.23325,0.0956 0.0301,0.34037 -0.21606,0.26034 -0.13037,0.35296 0.36448,0.39391 0.35583,0.0294 0.64696,-0.0642 0.64696,-0.20808 z m 6.61458,-1.58453 c 0,-0.14552 -0.11906,-0.26459 -0.26458,-0.26459 -0.14552,0 -0.26459,0.11907 -0.26459,0.26459 0,0.14552 0.11907,0.26458 0.26459,0.26458 0.14552,0 0.26458,-0.11906 0.26458,-0.26458 z m -8.06979,-0.26459 c -0.0899,-0.14552 -0.30532,-0.26276 -0.47864,-0.26053 -0.18934,0.002 -0.1567,0.10642 0.0818,0.26053 0.5083,0.32849 0.59989,0.32849 0.39688,0 z m 9.73537,-1.12447 c -0.17428,-0.90729 -0.46237,-0.94532 -0.513,-0.0677 -0.0209,0.36273 0.0684,0.59375 0.19844,0.51336 0.13006,-0.0804 0.23648,-2.2e-4 0.23648,0.17814 0,0.17836 0.049,0.27469 0.10893,0.21405 0.0599,-0.0606 0.046,-0.43766 -0.0308,-0.83784 z m -1.22026,-3.68763 c -0.0845,-0.21107 -0.14715,-0.14838 -0.15985,0.15985 -0.0115,0.27891 0.051,0.43518 0.13897,0.34726 0.0879,-0.0879 0.0973,-0.31612 0.0209,-0.50711 z m -7.24514,-1.97735 c -0.0741,-0.19319 -0.24138,-0.28538 -0.37165,-0.20487 -0.36233,0.22393 -0.28182,0.55613 0.13479,0.55613 0.2044,0 0.31099,-0.15807 0.23686,-0.35126 z m 5.16016,-1.51245 c -0.0441,-0.3089 -0.19919,-0.50562 -0.34471,-0.43716 -0.14553,0.0684 -0.22424,0.30018 -0.17492,0.51493 0.0784,0.34141 0.0314,0.34239 -0.37405,0.008 -0.42763,-0.35287 -0.43944,-0.33709 -0.15177,0.20281 0.388,0.72823 1.16012,0.51524 1.04545,-0.28841 z m -4.44981,-1.43715 c -0.003,-0.38557 -0.0395,-0.39255 -0.26053,-0.0505 -0.33486,0.51815 -0.33486,0.86841 0,0.66146 0.14552,-0.0899 0.26276,-0.36486 0.26053,-0.61093 z m 4.98841,0.13421 c -0.21794,-0.40722 -0.32643,-0.44364 -0.49742,-0.16697 -0.27141,0.43915 -0.13334,0.68779 0.38193,0.68779 0.31012,0 0.33476,-0.1111 0.11549,-0.52082 z m -3.45985,-2.72629 c -0.0288,-0.3484 -0.14552,-0.63345 -0.2593,-0.63345 -0.11378,0 -0.20687,-0.17157 -0.20687,-0.38126 0,-0.20969 -0.11907,-0.45484 -0.26459,-0.54478 -0.15065,-0.0931 -0.26458,0.13475 -0.26458,0.52917 0,0.45676 0.10418,0.6283 0.30588,0.50364 0.22043,-0.13623 0.26106,0.0871 0.14544,0.79962 -0.1359,0.83744 -0.10256,0.94063 0.218,0.67458 0.20815,-0.17274 0.35486,-0.59913 0.32602,-0.94752 z m 4.0091,-0.50116 c 0.008,-0.14552 -0.10088,-0.086 -0.24194,0.13229 -0.14106,0.21829 -0.24994,0.57547 -0.24194,0.79375 0.0154,0.41906 0.45632,-0.42486 0.48388,-0.92604 z m -0.92791,-2.48645 c 0.70634,-0.78051 0.32069,-0.69608 -0.4806,0.1052 -0.3638,0.36381 -0.84547,0.66146 -1.07036,0.66146 -0.2249,0 -0.4089,0.12212 -0.4089,0.27138 0,0.36635 1.3231,-0.33443 1.95986,-1.03804 z m 0.0245,1.03124 c 0.0899,-0.14552 0.0374,-0.26458 -0.11667,-0.26458 -0.15411,0 -0.2802,0.11906 -0.2802,0.26458 0,0.14553 0.0525,0.26459 0.11667,0.26459 0.0642,0 0.19026,-0.11906 0.2802,-0.26459 z m -2.72962,-1.90941 c -0.18985,-0.18985 -0.31309,-0.20547 -0.31309,-0.0397 0,0.35316 0.3129,0.66606 0.48948,0.48948 0.0752,-0.0752 -0.004,-0.27759 -0.17639,-0.4498 z m -0.40244,-1.33173 c -0.0734,-0.1819 -0.13345,-0.0331 -0.13345,0.33073 0,0.3638 0.06,0.51263 0.13345,0.33073 0.0734,-0.1819 0.0734,-0.47956 0,-0.66146 z m 4.6505,-0.85189 c 0.0687,-0.3594 0.023,-0.5905 -0.10145,-0.51355 -0.21922,0.13549 -0.32964,1.167 -0.12492,1.167 0.0558,0 0.15766,-0.29405 0.22637,-0.65345 z m -1.62974,-0.0741 c 0.29035,-0.38371 0.29037,-0.40991 1.5e-4,-0.15297 -0.19261,0.17053 -0.51429,0.24709 -0.71484,0.17013 -0.20055,-0.077 -0.36463,-0.008 -0.36463,0.15297 0,0.45407 0.68919,0.34544 1.07932,-0.17013 z m -0.35172,-0.7777 c -0.25466,-0.0666 -0.67138,-0.0666 -0.92604,0 -0.25466,0.0666 -0.0463,0.121 0.46302,0.121 0.50932,0 0.71768,-0.0545 0.46302,-0.121 z m 2.17876,-1.52796 c 0.004,-0.75541 -0.013,-0.76642 -0.45897,-0.299 -0.30637,0.32111 -0.36063,0.52361 -0.16038,0.59855 0.16646,0.0623 0.24542,0.37543 0.17549,0.69588 -0.10265,0.47034 -0.0725,0.50613 0.15633,0.18575 0.15591,-0.21828 0.2853,-0.74981 0.28753,-1.18118 z m 0.91395,-1.75536 c -0.1053,-0.17037 -0.2958,-0.15416 -0.53658,0.0457 -0.56452,0.46851 -0.44707,0.83229 0.16326,0.50565 0.29512,-0.15794 0.46311,-0.40604 0.37332,-0.55132 z m -6.20561,-3.08273 c -0.002,-0.10914 -0.11947,-0.37703 -0.26054,-0.59531 -0.2074,-0.32093 -0.25725,-0.28296 -0.26053,0.19843 -0.002,0.32742 0.11501,0.59532 0.26053,0.59532 0.14552,0 0.26276,-0.0893 0.26054,-0.19844 z m 5.89103,0.0232 c -0.18191,-0.0734 -0.47956,-0.0734 -0.66146,0 -0.1819,0.0734 -0.0331,0.13345 0.33073,0.13345 0.3638,0 0.51263,-0.06 0.33073,-0.13345 z m -10.78177,-0.35394 c 0.0899,-0.14552 0.0374,-0.26458 -0.11668,-0.26458 -0.15411,0 -0.2802,0.11906 -0.2802,0.26458 0,0.14552 0.0525,0.26458 0.11668,0.26458 0.0642,0 0.19026,-0.11906 0.2802,-0.26458 z m 11.30322,-1.15755 c 0.0987,-0.5165 0.01,-0.62839 -0.49832,-0.62839 -0.66974,0 -0.80817,0.43205 -0.30095,0.93927 0.46804,0.46804 0.66502,0.39143 0.79927,-0.31088 z m -7.39285,-0.70503 c -0.0776,-0.29681 -0.20024,-0.48054 -0.2725,-0.40828 -0.14314,0.14313 0.1097,0.94794 0.2978,0.94794 0.0637,0 0.0523,-0.24285 -0.0253,-0.53966 z m 1.32133,-0.7074 c -0.11068,-0.72638 -0.18317,-0.79656 -0.49781,-0.48192 -0.4657,0.4657 -0.46152,0.5396 0.0601,1.06122 0.54192,0.54192 0.59736,0.46854 0.43771,-0.5793 z m 5.82753,0.013 c -0.1136,-0.29604 -0.0675,-0.3776 0.14059,-0.24897 0.17026,0.10522 0.30955,0.0506 0.30955,-0.12128 0,-0.22787 0.11166,-0.21993 0.41194,0.0293 0.35942,0.29829 0.39861,0.24338 0.30743,-0.43062 -0.0723,-0.53427 -0.26052,-0.78118 -0.61038,-0.80064 -0.27823,-0.0155 -0.71936,-0.11947 -0.9803,-0.23112 -0.558,-0.23875 -0.8489,-0.0372 -0.5783,0.4006 0.11322,0.1832 0.50071,0.24687 0.95253,0.15651 0.44631,-0.0893 0.76166,-0.0391 0.76166,0.12125 0,0.15047 -0.11906,0.2 -0.26458,0.11006 -0.14552,-0.0899 -0.26458,-0.0539 -0.26458,0.08 0,0.13393 -0.29766,0.18661 -0.66146,0.11706 -0.81204,-0.15523 -0.8441,0.11164 -0.0918,0.7641 0.69993,0.60705 0.78304,0.61492 0.56771,0.0538 z m -6.54105,-1.21337 c -0.0812,-0.32743 -0.0793,-0.44649 0.004,-0.26459 0.2457,0.53496 0.59991,0.37844 0.44905,-0.19843 -0.0761,-0.29105 -0.342,-0.52917 -0.59086,-0.52917 -0.35226,0 -0.42668,0.17581 -0.33599,0.79375 0.0641,0.43656 0.23007,0.79375 0.36888,0.79375 0.13881,0 0.18593,-0.26789 0.10471,-0.59531 z m 10.93729,-0.59532 c 0.008,-0.14552 -0.10087,-0.086 -0.24193,0.1323 -0.14107,0.21828 -0.24994,0.57546 -0.24194,0.79375 0.0154,0.41906 0.45632,-0.42487 0.48387,-0.92605 z m 0.39727,-0.83117 c 0.13935,-0.36313 0.10064,-0.3795 -0.23627,-0.0999 -0.45912,0.38103 -0.5069,0.53419 -0.16666,0.53419 0.12996,0 0.31127,-0.19544 0.40293,-0.4343 z m -12.23236,-0.41678 c -0.18986,-0.18985 -0.31309,-0.20547 -0.31309,-0.0397 0,0.35316 0.3129,0.66606 0.48948,0.48948 0.0752,-0.0752 -0.004,-0.27759 -0.17639,-0.44979 z m 7.93881,-0.48016 c 0.54719,-0.50088 0.76962,-0.87346 0.59232,-0.99219 -0.37247,-0.24943 -0.15637,-2.49712 0.21785,-2.26584 0.17964,0.11102 0.2143,-0.0736 0.0996,-0.53064 -0.10135,-0.4038 -0.0652,-0.70092 0.0854,-0.70092 0.14372,0 0.19227,-0.17995 0.10787,-0.39988 -0.1143,-0.29786 -0.0278,-0.35705 0.33904,-0.23203 0.38068,0.12975 0.35765,0.0672 -0.10148,-0.27563 -0.57344,-0.42817 -0.62711,-0.41129 -1.55382,0.48872 -1.19605,1.16159 -3.10993,2.11151 -3.85936,1.91553 -0.41777,-0.10925 -0.32117,0.0525 0.37309,0.62478 0.65316,0.53839 1.02821,1.13522 1.23871,1.97118 0.25419,1.00946 0.40329,1.19899 0.94323,1.19899 0.35273,0 1.03562,-0.36093 1.51755,-0.80207 z m -2.03419,-2.90209 c 0.0899,-0.14553 0.21602,-0.26459 0.28019,-0.26459 0.0642,0 0.11668,0.11906 0.11668,0.26459 0,0.14552 -0.12609,0.26458 -0.2802,0.26458 -0.15411,0 -0.20661,-0.11906 -0.11667,-0.26458 z m 7.72136,-0.57878 c -0.0845,-0.21107 -0.14716,-0.14837 -0.15985,0.15985 -0.0115,0.27892 0.051,0.43519 0.13896,0.34727 0.0879,-0.0879 0.0973,-0.31612 0.0209,-0.50712 z m -13.93907,-0.74414 c 0,-0.14552 -0.0525,-0.26458 -0.11668,-0.26458 -0.0642,0 -0.19026,0.11906 -0.2802,0.26458 -0.0899,0.14552 -0.0374,0.26458 0.11668,0.26458 0.15411,0 0.2802,-0.11906 0.2802,-0.26458 z m 1.32291,0.14791 c 0,-0.27927 -0.50776,-0.39659 -0.65879,-0.15223 -0.0914,0.1479 0.0194,0.2689 0.2463,0.2689 0.22687,0 0.41249,-0.0525 0.41249,-0.11667 z m -1.74128,-1.29915 c -0.17016,-0.4434 -0.63997,-0.35228 -0.63997,0.12414 0,0.14552 0.11907,0.19099 0.26459,0.10106 0.14552,-0.0899 0.26458,-0.0176 0.26458,0.16077 0,0.17836 0.0623,0.26196 0.13852,0.18578 0.0762,-0.0762 0.0637,-0.33347 -0.0277,-0.57175 z m 12.19933,-0.38516 c -0.0815,-0.0815 -0.29496,-1.7e-4 -0.47444,0.18065 -0.25936,0.26131 -0.22897,0.2917 0.14812,0.14811 0.26093,-0.0994 0.40778,-0.2473 0.32632,-0.32876 z m -15.23161,-3.24678 c -0.16185,-0.30241 -0.22246,-0.73696 -0.1347,-0.96567 0.13575,-0.35376 0.25729,-0.32403 0.81413,0.19909 l 0.65455,0.61492 v -0.69197 c 0,-0.38058 0.11906,-0.76555 0.26458,-0.85548 0.14552,-0.0899 0.26276,-0.42439 0.26054,-0.74322 -0.002,-0.3241 -0.0898,-0.45688 -0.19844,-0.30115 -0.10691,0.1532 -0.64087,0.54987 -1.18658,0.88148 -1.03111,0.62657 -1.30189,1.46714 -0.67468,2.09435 0.46627,0.46627 0.53307,0.38889 0.2006,-0.23235 z m 5.56731,-0.31956 c 0.21828,-0.0809 -0.0794,-0.14715 -0.66145,-0.14715 -0.58209,0 -0.90877,0.0603 -0.72596,0.134 0.18281,0.0737 0.25774,0.25477 0.16651,0.40238 -0.11052,0.17883 -7.2e-4,0.18322 0.32908,0.0132 0.27222,-0.14038 0.67354,-0.32145 0.89182,-0.40239 z m 2.11667,-1.40803 c 0,-0.21898 -0.51375,-0.34281 -0.63154,-0.15223 -0.0764,0.12364 0.0344,0.2248 0.2463,0.2248 0.21188,0 0.38524,-0.0327 0.38524,-0.0726 z m -1.25677,-0.54363 c -0.1819,-0.0734 -0.47956,-0.0734 -0.66146,0 -0.1819,0.0734 -0.0331,0.13346 0.33073,0.13346 0.3638,0 0.51263,-0.0601 0.33073,-0.13346 z m -4.69635,-1.14768 c 0.0899,-0.14552 0.0374,-0.26459 -0.11668,-0.26459 -0.15411,0 -0.2802,0.11907 -0.2802,0.26459 0,0.14552 0.0525,0.26458 0.11668,0.26458 0.0642,0 0.19026,-0.11906 0.2802,-0.26458 z m -2.27101,-0.0965 c -0.40854,-0.35743 -1.30087,-0.67394 -1.30087,-0.46142 0,0.13997 0.20836,0.30894 0.46302,0.37549 0.6383,0.16681 0.96906,0.20073 0.83785,0.0859 z m -0.51347,-1.49996 -0.57155,-0.80267 0.95275,0.10499 c 0.81493,0.0898 0.90597,0.0486 0.62935,-0.28467 -0.23773,-0.28645 -0.35197,-0.30397 -0.43124,-0.0661 -0.0815,0.24444 -0.1613,0.23705 -0.32647,-0.0302 -0.17153,-0.27754 -0.3641,-0.21706 -0.89401,0.28076 -0.37147,0.34898 -0.67357,0.76258 -0.67135,0.91911 0.002,0.15654 0.11597,0.10761 0.25275,-0.10872 0.21126,-0.33414 0.33165,-0.30428 0.8,0.19844 0.78803,0.84585 0.93011,0.7305 0.25977,-0.2109 z m 14.55843,5.82975 c 0,-0.14552 0.12609,-0.26458 0.2802,-0.26458 0.15411,0 0.20662,0.11906 0.11668,0.26458 -0.0899,0.14552 -0.21603,0.26458 -0.2802,0.26458 -0.0642,0 -0.11668,-0.11906 -0.11668,-0.26458 z m -1.98437,-1.05833 c 0.0899,-0.14552 0.28258,-0.26459 0.4281,-0.26459 0.14552,0 0.191,0.11907 0.10107,0.26459 -0.0899,0.14552 -0.28259,0.26458 -0.42811,0.26458 -0.14552,0 -0.191,-0.11906 -0.10106,-0.26458 z m 1.93476,0.0838 c 0.191,-0.0764 0.4192,-0.067 0.50712,0.0209 0.0879,0.0879 -0.0684,0.15045 -0.34726,0.13896 -0.30823,-0.0127 -0.37092,-0.0754 -0.15986,-0.15985 z m -4.26472,-1.04679 c -0.21139,-0.21138 0.0276,-0.62455 0.3612,-0.62455 0.13693,0 0.24897,0.17859 0.24897,0.39687 0,0.40916 -0.3122,0.52565 -0.61017,0.22768 z m 1.53621,-0.35997 c -0.20695,-0.33486 0.1433,-0.33486 0.66146,0 0.34202,0.22103 0.33504,0.25704 -0.0505,0.26053 -0.24608,0.002 -0.52099,-0.11501 -0.61093,-0.26053 z m 3.45659,-1.50994 c -0.14358,-0.37709 -0.11319,-0.40748 0.14812,-0.14812 0.18082,0.17948 0.26211,0.39297 0.18065,0.47444 -0.0815,0.0815 -0.22941,-0.0654 -0.32877,-0.32632 z m -5.97013,-0.0776 c -0.33917,-0.21919 -0.32955,-0.25707 0.0661,-0.26053 0.25466,-0.002 0.54934,-0.013 0.65485,-0.0239 0.1055,-0.0109 0.23448,0.10815 0.28663,0.26459 0.11752,0.35257 -0.47472,0.36423 -1.00762,0.0198 z m -0.18635,-0.90399 c -0.0897,-0.15765 -0.0722,-0.20494 0.0388,-0.10509 0.11105,0.0999 0.4772,0.0769 0.81366,-0.051 0.42981,-0.16341 0.65028,-0.13216 0.74132,0.10509 0.16229,0.42293 -1.35461,0.4715 -1.59382,0.051 z m 6.12057,-0.41893 c 0,-0.3427 0.0895,-0.43215 0.26081,-0.2608 0.17134,0.17135 0.17134,0.35026 0,0.52161 -0.17135,0.17135 -0.26081,0.0819 -0.26081,-0.26081 z m -5.40506,-0.25851 c 0,-0.11493 0.29406,-0.26518 0.65346,-0.33388 0.35939,-0.0687 0.59937,-0.0374 0.53328,0.0695 -0.17581,0.28447 -1.18674,0.50968 -1.18674,0.26437 z m -5.55625,-0.11005 c 0,-0.0572 0.18478,-0.17489 0.41062,-0.26156 0.23546,-0.0904 0.34166,-0.046 0.24897,0.10399 -0.15538,0.2514 -0.65959,0.37185 -0.65959,0.15757 z m 5.77123,-0.60593 c 0.19099,-0.0764 0.4192,-0.067 0.50712,0.0209 0.0879,0.0879 -0.0684,0.15045 -0.34727,0.13897 -0.30822,-0.0127 -0.37092,-0.0754 -0.15985,-0.15986 z m -7.62331,-0.80301 c 0,-0.45659 0.47741,-0.42872 0.96231,0.0562 0.35075,0.35074 0.31876,0.38901 -0.28348,0.33916 -0.37336,-0.0309 -0.67883,-0.2088 -0.67883,-0.39535 z m 2.35311,-0.17296 c 0.24146,-0.29094 0.23501,-0.36649 -0.0287,-0.33679 -0.71405,0.0804 -0.50256,-0.50208 0.35338,-0.9733 0.49176,-0.27073 0.74528,-0.33842 0.56338,-0.15042 -0.18191,0.18799 -0.33073,0.60291 -0.33073,0.92204 0,0.31913 -0.19544,0.65523 -0.4343,0.74689 -0.35037,0.13445 -0.37414,0.0942 -0.12301,-0.20842 z m 6.06395,0.18222 c 0.19099,-0.0764 0.4192,-0.067 0.50712,0.0209 0.0879,0.0879 -0.0684,0.15045 -0.34727,0.13897 -0.30822,-0.0127 -0.37092,-0.0754 -0.15985,-0.15986 z m -2.15649,-0.49702 c 0.15681,-0.40862 -0.53009,-0.42426 -1.16734,-0.0266 -0.18488,0.11538 -0.33073,0.085 -0.33073,-0.0688 0,-0.34483 1.18708,-0.65857 1.7192,-0.45437 0.50476,0.19369 0.51197,0.59774 0.0141,0.78881 -0.25719,0.0987 -0.33462,0.02 -0.2352,-0.23911 z m 1.80922,-0.11599 c -0.0899,-0.14552 -0.0374,-0.26458 0.11668,-0.26458 0.15411,0 0.2802,0.11906 0.2802,0.26458 0,0.14552 -0.0525,0.26459 -0.11668,0.26459 -0.0642,0 -0.19026,-0.11907 -0.2802,-0.26459 z m -2.97153,-1.77085 c 0.25744,-0.0671 0.61462,-0.0627 0.79375,0.01 0.17914,0.0725 -0.0315,0.12736 -0.46805,0.12197 -0.43656,-0.005 -0.58313,-0.0647 -0.3257,-0.13177 z"
       id="path6726" />
  </g>
</svg>
