<?xml version="1.0" encoding="UTF-8" standalone="no"?>
<!-- Created with Inkscape (http://www.inkscape.org/) -->

<svg
   width="210mm"
   height="297mm"
   viewBox="0 0 210 297"
   version="1.1"
   id="svg1243"
   inkscape:version="1.1.1 (3bf5ae0d25, 2021-09-20)"
   sodipodi:docname="rysuneklewy.svg"
   xmlns:inkscape="http://www.inkscape.org/namespaces/inkscape"
   xmlns:sodipodi="http://sodipodi.sourceforge.net/DTD/sodipodi-0.dtd"
   xmlns="http://www.w3.org/2000/svg"
   xmlns:svg="http://www.w3.org/2000/svg">
  <sodipodi:namedview
     id="namedview1245"
     pagecolor="#505050"
     bordercolor="#eeeeee"
     borderopacity="1"
     inkscape:pageshadow="0"
     inkscape:pageopacity="0"
     inkscape:pagecheckerboard="0"
     inkscape:document-units="mm"
     showgrid="false"
     inkscape:zoom="0.3616863"
     inkscape:cx="-406.42955"
     inkscape:cy="1129.4318"
     inkscape:window-width="1920"
     inkscape:window-height="1001"
     inkscape:window-x="-9"
     inkscape:window-y="-9"
     inkscape:window-maximized="1"
     inkscape:current-layer="layer1" />
  <defs
     id="defs1240" />
  <g
     inkscape:label="Warstwa 1"
     inkscape:groupmode="layer"
     id="layer1">
    <path
       style="fill:#000000;stroke-width:0.759511"
       d="m 110.89412,26.293504 c 1.49575,2.78152 9.19566,4.17491 10.1546,6.60991 10.82362,27.4828 -8.78292,30.68233 7.26162,39.55006 10.28488,5.68436 21.58895,5.74044 28.30764,12.94196 24.84076,26.625856 16.15056,70.727626 6.11804,63.763166 1.92942,-1.50868 3.68372,-3.34748 3.89839,-4.08624 0.21484,-0.73872 0.28248,-0.3731 0.15088,0.8125 -0.13191,1.18563 0.0459,2.15569 0.39437,2.15569 0.34862,0 0.63389,-0.37356 0.63389,-0.83016 0,-0.45655 0.3145,-0.62306 0.69895,-0.36997 1.04149,0.68563 2.32481,-2.3869 2.72197,-6.51698 0.50204,-5.22065 -2.80221,-19.40891 -5.62383,-24.14816 -2.84142,-4.77254 -5.31943,-11.81692 -4.7863,-13.6062 0.84947,-2.850876 -6.85243,-20.458166 -10.27084,-23.480116 -0.6334,-0.56 -4.72888,-1.6366 -9.10104,-2.39252 -8.85745,-1.53133 -13.2144,-3.497 -15.57355,-7.02613 -0.87117,-1.30315 -2.01671,-2.3694 -2.54565,-2.3694 -1.08014,0 -1.88162,-3.38088 -1.88162,-7.93675 0,-2.06366 0.32637,-3.03755 1.01801,-3.03755 1.9629,0 2.68469,-7.70208 0.89996,-9.60318 -0.56414,-0.60089 -1.23512,-2.73786 -1.49116,-4.74886 -0.57307,-4.50109 -1.03928,-5.90156 -2.75982,-8.29023 -1.62561,-2.25688 -1.72422,-1.82876 -0.26749,1.16202 0.74584,1.5314 0.83374,2.37686 0.28463,2.73832 -0.53758,0.35391 -0.48981,0.63105 0.14782,0.85747 0.57454,0.2039 0.96598,1.77028 1.00316,4.01406 0.0337,2.02374 0.27422,3.67967 0.53507,3.67977 0.26075,10e-5 0.45571,0.79387 0.43327,1.76393 -0.0214,0.97006 0.20934,2.4692 0.5152,3.33149 0.44861,1.2648 0.39915,1.34053 -0.25585,0.39193 -0.44656,-0.64669 -1.34414,-3.08255 -1.99461,-5.41297 -0.65045,-2.33043 -2.01264,-5.0565 -3.02704,-6.0579 -1.22502,-1.20932 -1.7136,-2.35331 -1.45496,-3.40672 0.21424,-0.87234 0.0891,-1.38837 -0.27789,-1.14675 -0.36698,0.24148 -0.66728,0.0486 -0.66728,-0.42872 0,-0.47738 -1.0705,-1.34746 -2.37892,-1.93344 -2.09735,-0.93936 -2.81601,-0.88853 -6.07121,0.42938 -2.03076,0.82218 -4.59532,1.49504 -5.699058,1.49524 -2.48986,5e-4 -4.22179,2.59629 -4.80092,7.1956 -0.33904,2.69252 -0.53871,3.03825 -1.03573,1.79357 -0.44901,-1.12443 -0.5126,-0.9052 -0.23505,0.80974 0.20934,1.2934 0.53748,4.11537 0.72907,6.27104 0.59875,6.73701 1.43794,10.19043 2.47633,10.19043 0.54413,0 1.49172,1.3418 2.1058,2.98183 0.983858,2.62746 0.989758,3.4049 0.0499,6.54193 -1.02193,3.41075 -1.31151,3.67518 -6.90165,6.30187 -3.20922,1.50795 -7.756682,3.10254 -10.105454,3.5436 -3.393836,0.63727 -4.509446,1.22572 -5.434417,2.86644 -0.640132,1.13555 -2.100382,3.55538 -3.244974,5.37742 -2.041652,3.25006 -4.847294,12.396786 -3.538139,11.534956 0.36634,-0.24115 0.666085,0.44335 0.666085,1.52115 0,1.07787 -0.339929,2.18354 -0.755421,2.45705 -0.415461,0.27342 -0.685672,0.91162 -0.600498,1.41804 0.08508,0.50639 -0.418828,2.32763 -1.120078,4.04716 -0.722703,1.77211 -1.08381,3.93785 -0.833585,4.99969 1.27298,5.40276 8.740908,8.57947 13.963294,5.93971 2.667675,-1.34839 2.833094,-1.67027 2.628225,-5.11378 -0.14874,-2.49999 1.823041,-4.54213 3.086352,-3.1965 0.64524,0.68733 0.48374,0.90742 -0.665934,0.90742 -1.430687,0 -1.507872,0.39376 -1.344809,6.85895 0.12548,4.97005 0.627186,8.04625 1.822333,11.17031 1.08945,2.84775 1.78271,6.68097 2.04211,11.29158 l 0.39279,6.98029 -2.775559,-0.47974 c -3.89692,-0.67363 -5.343919,-2.40233 -6.272379,-7.49339 -0.443342,-2.43081 -1.329292,-5.72348 -1.968781,-7.31704 -0.63952,-1.5936 -0.984988,-3.3573 -0.767693,-3.9194 0.217294,-0.56209 0.954566,-2.41693 1.638463,-4.12186 1.692786,-4.22005 -0.347121,-2.48499 -2.186352,1.8596 -0.927144,2.19009 -1.632832,2.94567 -2.442086,2.61488 -1.249842,-0.51088 -0.812651,0.67363 1.146551,3.10626 0.595969,0.73999 1.174248,2.97638 1.285068,4.96985 0.187302,3.36884 0.08998,3.5926 -1.379454,3.17263 -0.869515,-0.24847 -2.180047,-0.45666 -2.912238,-0.46255 -0.732191,-0.007 -1.14805,-0.3263 -0.924114,-0.71244 0.224027,-0.38594 -0.08753,-0.904 -0.692436,-1.15121 -0.604814,-0.24714 -1.099664,-1.13664 -1.099664,-1.97651 0,-0.83987 -0.324687,-1.64462 -0.721541,-1.78832 -0.396823,-0.14369 -1.068324,-2.20139 -1.492141,-4.57263 -0.819537,-4.5853 -0.0018,-7.83882 1.970098,-7.83882 1.351726,0 1.250179,-0.44276 -0.860242,-3.75102 -1.011889,-1.58615 -1.849851,-3.41937 -1.862154,-4.07377 -0.01836,-1.05618 -0.09641,-1.05498 -0.682581,0.0133 2.62293,102.26809 5.434662,-87.070156 44.604353,-89.633846 z M 166.34296,150.3922 c 0.43324,-0.86226 0.66176,-1.56779 0.50791,-1.56779 -0.15394,0 -0.87918,0.70553 -1.61177,1.56779 -0.73259,0.86226 -0.96115,1.56772 -0.50789,1.56772 0.45323,0 1.17853,-0.70546 1.61175,-1.56772 z M 95.507022,33.408004 c 0.0973,-1.37836 -0.0245,-1.50425 -0.56803,-0.58791 -0.85069,1.43324 -0.90318,2.34176 -0.13527,2.34176 0.31863,0 0.63511,-0.78921 0.70333,-1.75385 z m 1.51479,-6.04116 c 0.59897,-0.63801 1.56954,-1.23517 2.15685,-1.32697 1.411948,-0.22086 1.918188,-0.81183 1.136138,-1.32667 -0.346868,-0.22851 -1.693518,0.13305 -2.992568,0.80332 -1.80266,0.92995 -2.34816,1.70573 -2.30382,3.27624 0.0349,1.23878 0.22832,1.59539 0.48622,0.89595 0.23566,-0.639 0.91821,-1.68387 1.51718,-2.32187 z m 15.890848,1.70249 c -0.85198,-0.74487 -1.76033,-1.994 -2.01854,-2.77583 -0.258,-0.78177 -0.79607,-1.20639 -1.19531,-0.94359 -0.39924,0.26277 -1.33012,0.13338 -2.06858,-0.28772 -0.82226,-0.46876 -1.75519,-0.48746 -2.40689,-0.0482 -0.84295,0.56806 -0.74664,0.7197 0.46329,0.72921 0.84011,0.007 2.2887,0.87507 3.21902,1.92991 0.93036,1.05488 2.39551,2.06509 3.25587,2.24491 0.86037,0.17995 1.72991,0.36715 1.93227,0.41624 0.20261,0.0492 -0.32912,-0.52012 -1.18113,-1.26503 z M 91.771422,153.78898 c -1.069,-1.13864 -0.40573,-1.83582 0.98973,-1.04028 1.12846,0.64332 2.09689,0.5323 4.07379,-0.467 2.83407,-1.43251 4.020348,-1.04487 2.55556,0.83511 -0.9373,1.203 -6.6478,1.70679 -7.61908,0.67217 z m 22.184408,-0.79677 c 0.53124,-0.22618 1.16595,-0.19857 1.41048,0.0619 0.24454,0.26044 -0.19036,0.44575 -0.96585,0.41169 -0.85731,-0.0376 -1.03166,-0.22353 -0.44463,-0.47359 z m -3.17358,-1.03229 c 0.25005,-0.43112 0.76641,-0.78386 1.14729,-0.78386 0.38085,0 0.69247,0.35274 0.69247,0.78386 0,0.43114 -0.51631,0.78392 -1.14732,0.78392 -0.63098,0 -0.9426,-0.35278 -0.69244,-0.78392 z m 34.54201,-6.85892 c -0.34373,-4.32137 -0.21944,-9.32405 0.3361,-13.52192 0.48493,-3.66464 1.03417,-8.07395 1.22052,-9.7985 l 0.33886,-3.13554 -1.07151,2.35164 -1.07151,2.35165 0.0933,-3.52743 c 0.0514,-1.94013 -0.16619,-4.36535 -0.48426,-5.38936 -0.41562,-1.33924 -0.33611,-1.7028 0.2834,-1.29503 0.47361,0.31166 1.41976,0.0625 2.10258,-0.55419 0.6828,-0.61658 3.05486,-1.92984 5.27124,-2.91833 2.21637,-0.98849 4.79315,-2.33009 5.72623,-2.9813 2.05702,-1.4357 3.02894,-0.67985 1.80661,1.405 -1.16476,1.98662 -1.12733,2.73732 0.29564,5.9316 0.8615,1.9338 1.66999,2.66604 2.94361,2.66604 3.07264,0 1.90326,1.93413 -3.02679,5.00607 -2.63049,1.63913 -4.95922,3.28435 -5.17489,3.65609 -0.21577,0.37181 -0.8783,0.47725 -1.47246,0.2345 -1.65612,-0.67695 -1.33239,0.30734 1.88651,5.73642 l 2.96681,5.00387 -1.77756,2.52767 c -0.97765,1.39027 -2.01711,3.40959 -2.30988,4.48742 -0.60912,2.24211 -6.12382,8.62268 -7.45262,8.62268 -0.57987,0 -1.07252,-2.36269 -1.43011,-6.85895 z m 12.92376,-10.66159 c 0,-0.58249 -0.80646,-2.67472 -1.79216,-4.64937 -1.33871,-2.68201 -1.57146,-3.77364 -0.91989,-4.31489 1.30754,-1.08611 4.18387,-1.68946 4.18387,-0.87759 0,0.39073 0.48821,0.71048 1.08495,0.71048 0.5967,0 1.59203,1.04451 2.21178,2.32115 1.10046,2.26675 1.06588,2.38613 -1.47742,5.09521 -2.87101,3.05817 -3.29113,3.2771 -3.29113,1.71501 z m -45.25805,-10.50523 c -1.21425,-0.17297 -2.41733,-0.55196 -2.67346,-0.84214 -0.25616,-0.29038 -0.68873,-3.3873 -0.96127,-6.88246 l -0.49552,-6.3549 5.64498,-0.5449 c 3.10474,-0.29969 5.73015,-0.4383 5.83423,-0.30801 0.10406,0.13006 0.41804,3.1227 0.69773,6.6499 0.45381,5.72324 0.365,6.4916 -0.82547,7.14248 -1.94479,1.06322 -4.70339,1.49879 -7.22122,1.14009 z m 4.59939,-2.94834 c 1.7686,-0.60238 2.26446,-1.93237 0.7359,-1.97378 -0.5448,-0.0133 -0.37375,-0.46591 0.41944,-1.10637 2.00253,-1.61695 1.44898,-6.3071 -0.74817,-6.33913 -0.8891,-0.0133 -1.85499,-0.27774 -2.14641,-0.58788 -1.17358,-1.25009 -1.88909,-0.44807 -1.41961,1.5913 0.46152,2.00475 0.42302,2.05072 -0.5497,0.65653 -0.66749,-0.95669 -1.50199,-1.31276 -2.3062,-0.98406 -1.78778,0.73077 -1.27668,6.51146 0.54575,6.17228 0.68065,-0.12673 1.23754,0.13771 1.23754,0.58788 0,0.45004 -0.33114,0.81829 -0.73589,0.81829 -0.40475,0 -0.7359,0.39046 -0.7359,0.86771 0,0.47728 0.49675,0.66471 1.10386,0.41654 0.60711,-0.24813 1.10382,-0.1407 1.10382,0.23883 0,0.70183 0.5486,0.64562 3.49557,-0.35804 z m 43.70841,-8.80779 c -0.80298,-1.99893 -0.78483,-2.04503 0.24974,-0.63404 0.61369,0.83688 1.11582,1.80691 1.11582,2.15566 0,1.19139 -0.49917,0.63521 -1.36565,-1.52162 z m -15.5601,-1.3718 c 0,-0.64668 0.32074,-1.17582 0.71282,-1.17582 0.39201,0 0.52218,0.52914 0.28921,1.17582 -0.2329,0.64672 -0.55373,1.17582 -0.71279,1.17582 -0.15914,0 -0.28921,-0.5291 -0.28921,-1.17582 z m -16.04272,-3.68423 c -1.04104,-1.10893 -1.18926,-4.54652 -0.19617,-4.54652 0.37785,0 0.79181,0.97009 0.91989,2.15569 0.35655,3.30072 2.39198,2.77461 2.6636,-0.68846 0.19557,-2.49397 -0.0122,-2.90679 -1.68082,-3.3531 -3.39177,-0.906796 -4.45033,-7.376276 -1.41024,-8.618926 0.87389,-0.3572 1.07221,-0.15434 0.7429,0.75975 -0.67367,1.8699 0.35135,7.500636 1.30383,7.16243 0.97498,-0.34616 1.06597,-1.60085 0.36986,-5.10107 -0.35997,-1.8103 -0.25892,-2.49866 0.33629,-2.28974 1.59874,0.56123 2.66908,4.09059 2.67995,8.836816 0.0122,5.03894 -0.77823,6.62379 -3.30074,6.62379 -0.84996,0 -1.94277,-0.4233 -2.42847,-0.94066 z M 91.280792,102.5446 c 0,-1.328 0.17384,-1.42755 1.02661,-0.58791 1.05912,1.04274 0.8843,2.18659 -0.33411,2.18659 -0.38088,0 -0.6925,-0.71939 -0.6925,-1.59868 z M 119.73403,88.910654 c -0.23505,-0.65251 0.31805,-2.16601 1.22918,-3.36328 2.74462,-3.60667 4.00652,-6.06931 4.8794,-9.52233 1.15506,-4.56907 2.48454,-3.3556 1.91939,1.75186 -0.46645,4.21576 -3.15316,9.21372 -6.03498,11.22665 -1.3554,0.94671 -1.62298,0.93424 -1.99299,-0.0928 z m -17.61834,-1.65959 c -2.397738,-2.55404 -5.056478,-8.54555 -4.489948,-10.11812 0.52909,-1.46876 1.74998,-1.60347 1.74998,-0.19325 0,0.5589 1.816798,3.2927 4.037308,6.07505 2.2205,2.78233 4.04186,5.32337 4.04746,5.64671 0.0245,1.38534 -3.62383,0.4226 -5.3448,-1.41059 z m 7.35922,-3.59645 c -3.13434,-1.71281 -8.64494,-8.05939 -8.56928,-9.86915 0.0321,-0.76414 0.21699,-0.97445 0.41115,-0.4674 0.59814,1.56189 5.7542,5.45338 5.20478,3.92821 -0.26197,-0.72745 -0.19097,-1.32268 0.15762,-1.32268 0.34871,0 0.84932,0.59756 1.11243,1.3279 0.39691,1.10178 0.66486,0.94495 1.57364,-0.92097 1.0518,-2.15952 1.00619,-2.33551 -1.14943,-4.43273 -1.2346,-1.20114 -2.7927,-2.51054 -3.46242,-2.90975 -1.07784,-0.64253 -0.9924,-0.94831 0.74422,-2.66265 1.81367,-1.79047 2.23743,-1.87872 5.60947,-1.1685 3.18294,0.67037 3.51195,0.91271 2.58272,1.9025 -0.81173,0.86465 -0.87643,1.50931 -0.27238,2.71184 0.63043,1.25482 0.52591,1.78529 -0.51092,2.59286 -1.22389,0.9533 -1.18254,1.16844 0.67774,3.52338 1.08969,1.37942 1.98124,3.33348 1.98124,4.34229 0,1.00884 0.41396,1.98263 0.91989,2.16401 0.71949,0.25812 0.70251,0.61033 -0.0777,1.61745 -1.20957,1.56093 -3.6538,1.43523 -6.93268,-0.35661 z m 13.26629,-11.27718 c -0.19526,-1.08811 -0.0686,-2.16717 0.28218,-2.39788 0.35046,-0.23084 0.63723,0.65956 0.63723,1.97841 0,2.91008 -0.43668,3.10929 -0.91938,0.41947 z m -18.21412,-10.47978 c 0,-0.94016 1.89165,-1.6572 4.29163,-1.62669 1.88541,0.0233 1.90668,0.0708 0.53506,1.17578 -1.56562,1.26138 -4.82669,1.56599 -4.82669,0.45091 z m -3.27473,-2.26563 c -0.19403,-0.20689 0.69718,-1.4213 1.981,-2.69873 2.11568,-2.10521 2.21251,-2.39506 1.03475,-3.09712 -1.01468,-0.60484 -1.69297,-0.32231 -3.09587,1.29027 -0.98808,1.13565 -1.801558,2.66395 -1.807768,3.39622 -0.009,1.14615 -0.11048,1.1678 -0.72463,0.15566 -1.42399,-2.34708 -0.71251,-3.70977 3.011518,-5.76778 3.97493,-2.19674 6.16606,-2.59206 6.94311,-1.25279 0.26106,0.45001 0.0937,1.30728 -0.37203,1.905 -0.6652,0.85378 -0.50862,1.2796 0.73005,1.98576 0.86725,0.49438 2.03706,0.71078 2.59961,0.48081 0.56252,-0.22985 1.19858,-0.11509 1.41342,0.25512 0.68987,1.18899 -10.68716,4.44048 -11.71316,3.34751 z m 14.11546,-5.59422 c -0.32006,-1.30388 -0.22433,-1.60993 0.32178,-1.0282 0.42765,0.45549 0.6327,1.29088 0.45574,1.8564 -0.18393,0.58711 -0.51728,0.23184 -0.77752,-0.8282 z m -2.86712,0.14004 c -1.15684,-0.27575 -2.4468,-2.43207 -1.8411,-3.07726 0.55456,-0.59071 2.59401,0.67017 3.0267,1.87123 0.52821,1.46624 0.40983,1.58661 -1.1856,1.20603 z m -12.756998,-5.69022 c 0.260138,-0.44804 -0.43077,-0.80511 -1.61236,-0.83355 l -2.06715,-0.0499 1.83975,-0.81652 c 1.69766,-0.75343 1.73056,-0.85997 0.42578,-1.37949 -1.33829,-0.53283 -1.31965,-0.63338 0.3477,-1.87739 2.498798,-1.86432 4.141298,-1.64106 4.677798,0.63584 0.55928,2.37366 -0.90027,5.1047 -2.72811,5.1047 -0.736018,0 -1.133548,-0.35278 -0.883408,-0.7839 z m 6.660568,-3.40546 c -2.12527,-2.96802 -2.37363,-4.02008 -0.79689,-3.37559 0.59413,0.24282 1.27601,0.10412 1.51521,-0.308 1.06717,-1.83924 6.97121,0.32197 6.97121,2.55181 0,0.47352 -0.60557,0.27708 -1.34575,-0.4364 -1.34445,-1.29603 -3.06964,-1.74331 -3.06964,-0.7958 0,0.27575 0.5795,0.97006 1.28782,1.54284 0.74725,0.60421 0.91138,1.05179 0.39107,1.06625 -0.49326,0.0133 -0.70618,0.55402 -0.47321,1.20077 0.83575,2.31991 -2.57051,1.2206 -4.47982,-1.44581 z"
       id="path4500"
       sodipodi:nodetypes="cssscssssssssssssssssssssssssssssssssssssssssssssssssssssssssscsssssssssssssssssscccsssssscssssssssssssssscssssssssssssssssssssssscccssssssssssssscsssssssssssssssscssssssssccssssssssssssssssssssssssssssssscsssssssssssssssssscsssssssssssssssssssssssssssssssssscsssssscsssssssssssscsssssssssssssscss" />
  </g>
</svg>
